<?xml version="1.0" encoding="UTF-8" standalone="no"?>
<svg
   xmlns:dc="http://purl.org/dc/elements/1.1/"
   xmlns:cc="http://creativecommons.org/ns#"
   xmlns:rdf="http://www.w3.org/1999/02/22-rdf-syntax-ns#"
   xmlns:svg="http://www.w3.org/2000/svg"
   xmlns="http://www.w3.org/2000/svg"
   xmlns:xlink="http://www.w3.org/1999/xlink"
   xmlns:sodipodi="http://sodipodi.sourceforge.net/DTD/sodipodi-0.dtd"
   xmlns:inkscape="http://www.inkscape.org/namespaces/inkscape"
   inkscape:export-ydpi="254"
   inkscape:export-xdpi="254"
   inkscape:export-filename="F:\hv\agricrowns\logo\logo3.png"
   width="500mm"
   height="500mm"
   viewBox="0 0 500 500"
   version="1.1"
   id="svg8"
   inkscape:version="1.0 (4035a4fb49, 2020-05-01)"
   sodipodi:docname="logo3.svg">
  <defs
     id="defs2">
    <rect
       id="rect884"
       height="129.12621"
       width="286.40777"
       y="308.73786"
       x="58.252427" />
    <linearGradient
       id="linearGradient876"
       inkscape:collect="always">
      <stop
         id="stop872"
         offset="0"
         style="stop-color:#2f987a;stop-opacity:1" />
      <stop
         style="stop-color:#1baf71;stop-opacity:1"
         offset="0.52254456"
         id="stop880" />
      <stop
         id="stop874"
         offset="1"
         style="stop-color:#0fbe6d;stop-opacity:1" />
    </linearGradient>
    <filter
       id="filter918"
       inkscape:label="Drop Shadow"
       style="color-interpolation-filters:sRGB;">
      <feFlood
         id="feFlood908"
         result="flood"
         flood-color="rgb(0,0,0)"
         flood-opacity="0.498039" />
      <feComposite
         id="feComposite910"
         result="composite1"
         operator="in"
         in2="SourceGraphic"
         in="flood" />
      <feGaussianBlur
         id="feGaussianBlur912"
         result="blur"
         stdDeviation="1"
         in="composite1" />
      <feOffset
         id="feOffset914"
         result="offset"
         dy="-2.77556e-17"
         dx="0" />
      <feComposite
         id="feComposite916"
         result="composite2"
         operator="over"
         in2="offset"
         in="SourceGraphic" />
    </filter>
    <filter
       id="filter936"
       inkscape:label="Drop Shadow"
       style="color-interpolation-filters:sRGB;">
      <feFlood
         id="feFlood926"
         result="flood"
         flood-color="rgb(0,0,0)"
         flood-opacity="0.498039" />
      <feComposite
         id="feComposite928"
         result="composite1"
         operator="in"
         in2="SourceGraphic"
         in="flood" />
      <feGaussianBlur
         id="feGaussianBlur930"
         result="blur"
         stdDeviation="1"
         in="composite1" />
      <feOffset
         id="feOffset932"
         result="offset"
         dy="-2.77556e-17"
         dx="0" />
      <feComposite
         id="feComposite934"
         result="composite2"
         operator="over"
         in2="offset"
         in="SourceGraphic" />
    </filter>
    <filter
       style="color-interpolation-filters:sRGB;"
       inkscape:label="Drop Shadow"
       id="filter877">
      <feFlood
         flood-opacity="0.498039"
         flood-color="rgb(0,0,0)"
         result="flood"
         id="feFlood867" />
      <feComposite
         in="flood"
         in2="SourceGraphic"
         operator="in"
         result="composite1"
         id="feComposite869" />
      <feGaussianBlur
         in="composite1"
         stdDeviation="1"
         result="blur"
         id="feGaussianBlur871" />
      <feOffset
         dx="0"
         dy="-2.77556e-17"
         result="offset"
         id="feOffset873" />
      <feComposite
         in="SourceGraphic"
         in2="offset"
         operator="over"
         result="composite2"
         id="feComposite875" />
    </filter>
    <filter
       style="color-interpolation-filters:sRGB;"
       inkscape:label="Drop Shadow"
       id="filter903">
      <feFlood
         flood-opacity="0.498039"
         flood-color="rgb(0,0,0)"
         result="flood"
         id="feFlood893" />
      <feComposite
         in="flood"
         in2="SourceGraphic"
         operator="in"
         result="composite1"
         id="feComposite895" />
      <feGaussianBlur
         in="composite1"
         stdDeviation="1"
         result="blur"
         id="feGaussianBlur897" />
      <feOffset
         dx="0"
         dy="-2.77556e-17"
         result="offset"
         id="feOffset899" />
      <feComposite
         in="SourceGraphic"
         in2="offset"
         operator="over"
         result="composite2"
         id="feComposite901" />
    </filter>
    <linearGradient
       gradientTransform="matrix(0.77334689,0,0,0.75491467,61.683773,15.167392)"
       spreadMethod="repeat"
       gradientUnits="userSpaceOnUse"
       y2="265.73761"
       x2="330.39413"
       y1="136.6114"
       x1="172.85069"
       id="linearGradient878"
       xlink:href="#linearGradient876"
       inkscape:collect="always" />
    <rect
       x="58.252426"
       y="308.73785"
       width="286.40778"
       height="129.12621"
       id="rect884-9" />
    <rect
       x="58.252426"
       y="308.73785"
       width="286.40778"
       height="129.12621"
       id="rect899" />
    <linearGradient
       gradientTransform="matrix(0.77334689,0,0,0.75491467,82.252553,39.439237)"
       gradientUnits="userSpaceOnUse"
       y2="290.11484"
       x2="424.77441"
       y1="290.11484"
       x1="126.4041"
       id="linearGradient931"
       xlink:href="#linearGradient876"
       inkscape:collect="always" />
    <linearGradient
       gradientTransform="matrix(0.77334689,0,0,0.75491467,66.188783,54.802313)"
       y2="290.11484"
       x2="424.77441"
       y1="290.11484"
       x1="126.4041"
       gradientUnits="userSpaceOnUse"
       id="linearGradient933"
       xlink:href="#linearGradient876"
       inkscape:collect="always" />
    <linearGradient
       gradientTransform="matrix(0.77334689,0,0,0.75491467,37.869819,54.641887)"
       y2="290.11484"
       x2="424.77441"
       y1="290.11484"
       x1="126.4041"
       gradientUnits="userSpaceOnUse"
       id="linearGradient935"
       xlink:href="#linearGradient876"
       inkscape:collect="always" />
    <filter
       id="filter955"
       inkscape:label="Drop Shadow"
       style="color-interpolation-filters:sRGB;">
      <feFlood
         id="feFlood945"
         result="flood"
         flood-color="rgb(0,0,0)"
         flood-opacity="0.498039" />
      <feComposite
         id="feComposite947"
         result="composite1"
         operator="in"
         in2="SourceGraphic"
         in="flood" />
      <feGaussianBlur
         id="feGaussianBlur949"
         result="blur"
         stdDeviation="1"
         in="composite1" />
      <feOffset
         id="feOffset951"
         result="offset"
         dy="-2.77556e-17"
         dx="0" />
      <feComposite
         id="feComposite953"
         result="composite2"
         operator="over"
         in2="offset"
         in="SourceGraphic" />
    </filter>
  </defs>
  <sodipodi:namedview
     id="base"
     pagecolor="#ffffff"
     bordercolor="#666666"
     borderopacity="1.0"
     inkscape:pageopacity="0.0"
     inkscape:pageshadow="2"
     inkscape:zoom="0.27252083"
     inkscape:cx="575.60026"
     inkscape:cy="944.88189"
     inkscape:document-units="mm"
     inkscape:current-layer="layer1"
     inkscape:document-rotation="0"
     showgrid="false"
     inkscape:window-width="1366"
     inkscape:window-height="705"
     inkscape:window-x="-32000"
     inkscape:window-y="-32000"
     inkscape:window-maximized="0" />
  <metadata
     id="metadata5">
    <rdf:RDF>
      <cc:Work
         rdf:about="">
        <dc:format>image/svg+xml</dc:format>
        <dc:type
           rdf:resource="http://purl.org/dc/dcmitype/StillImage" />
        <dc:title />
      </cc:Work>
    </rdf:RDF>
  </metadata>
  <g
     inkscape:label="Calque 1"
     inkscape:groupmode="layer"
     id="layer1">
    <rect
       y="0"
       x="0"
       height="500"
       width="500"
       id="rect920"
       style="fill:none;fill-opacity:1;stroke-width:2" />
    <g
       transform="matrix(1.2930808,0,0,1.324653,-79.762094,-20.091532)"
       style="stroke-width:0.764075;filter:url(#filter955)"
       id="g943">
      <path
         style="fill:url(#linearGradient878);fill-opacity:1;stroke-width:0.764074"
         d="m 226.76743,238.01186 c -1.52221,-3.67263 -4.03043,-7.96107 -5.57381,-9.52984 -1.54337,-1.56879 -3.15933,-4.3036 -3.59103,-6.0774 -1.09719,-4.50828 -13.62882,-17.13016 -21.72077,-21.87722 -3.71972,-2.18213 -5.37977,-3.58095 -3.68898,-3.10847 5.41614,1.51348 12.27542,5.44938 17.11224,9.81915 5.40262,4.88096 5.86774,5.02811 6.63328,2.09866 0.39037,-1.49379 0.60598,-1.23353 0.705,0.85096 0.1348,2.83914 12.26424,22.79 13.25382,21.80039 1.07484,-1.07483 7.79299,-40.88261 7.79299,-46.17658 0,-12.50464 -5.75698,-26.71565 -13.77342,-33.99937 -2.20999,-2.00798 -3.07956,-2.52394 -1.93238,-1.14655 2.55322,3.06555 6.24799,11.66716 5.38308,12.53207 -0.34622,0.34625 -2.54976,0.2693 -4.89672,-0.17088 -5.01218,-0.94029 -9.67126,-5.81131 -15.52403,-16.23024 -2.23772,-3.98351 -4.8985,-8.21112 -5.91284,-9.39467 -1.6961,-1.97905 -1.5573,-2.15074 1.7279,-2.1373 9.62549,0.0394 26.00667,7.17155 29.00373,12.62797 0.82419,1.50049 1.89838,5.49487 2.38709,8.87644 0.48874,3.38156 2.24648,10.55286 3.9061,15.93621 l 3.01749,9.78791 3.4615,-6.71376 c 2.89349,-5.61207 3.40473,-7.96928 3.11542,-14.36486 -1.10613,-24.45344 16.82329,-38.62645 58.89791,-46.55818 20.88578,-3.93731 21.08227,-3.92452 16.25162,1.05947 -2.14796,2.21612 -7.57274,10.93131 -12.05513,19.36712 -9.43547,17.75752 -14.78953,25.46369 -21.24242,30.57446 -7.62982,6.04295 -18.31322,9.25463 -25.70338,7.72711 l -4.0151,-0.82993 4.13716,-8.62845 c 2.27545,-4.74566 7.00746,-12.07748 10.51562,-16.29296 3.50816,-4.21549 6.04299,-7.66452 5.63295,-7.66452 -2.0557,0 -12.08325,8.09846 -17.1086,13.81725 -5.12366,5.83067 -11.55761,17.44633 -15.16381,27.37629 -2.34051,6.44479 -5.35596,18.07507 -4.82427,18.60675 0.82042,0.82043 2.89316,-2.31303 4.17407,-6.31018 2.43667,-7.60374 13.02841,-11.36886 27.40614,-9.74221 l 7.46251,0.84429 -7.58597,6.90828 c -4.17228,3.79956 -8.751,7.58034 -10.17493,8.40177 -3.16943,1.82837 -9.31645,1.98261 -11.81141,0.29639 -1.54136,-1.04173 -1.14482,-1.84695 2.41289,-4.89979 5.18836,-4.4521 3.70838,-4.8624 -1.95569,-0.54221 -10.18096,7.76541 -15.63323,21.1404 -15.64951,38.38996 l -0.0119,11.37431 h -3.85393 c -3.50592,0 -4.10388,-0.60299 -6.62165,-6.67752 z m -12.86204,-39.74342 c -0.53393,-3.85884 -0.38747,-7.40245 0.36398,-8.80654 2.07312,-3.87365 11.47373,-11.31638 12.71966,-10.07048 1.99981,1.99984 -0.36365,13.29095 -3.4877,16.66185 -3.94725,4.25918 -5.89694,4.03915 -5.21772,-0.58882 0.84752,-5.77442 -1.42708,-2.32733 -2.51789,3.81579 l -0.96687,5.44527 z m 112.77067,-11.08678 c -1.55688,-9.98063 -8.59871,-25.57997 -15.72166,-34.82721 -3.87484,-5.03046 -4.1628,-5.89665 -2.64883,-7.96715 1.64114,-2.24438 1.78588,-2.21979 4.27327,0.72544 8.29011,9.81608 16.70842,33.98337 15.87878,45.58479 -0.36407,5.09107 -0.47229,4.87747 -1.78156,-3.51587 z m -155.92162,-0.90101 c 1.45895,-16.64584 11.54157,-38.99456 21.8655,-48.4663 3.14288,-2.88345 3.3073,-2.90455 5.70797,-0.73198 2.45015,2.21737 2.41175,2.29828 -4.37815,9.22021 -11.46315,11.68608 -16.51557,20.70081 -20.97339,37.42164 L 170,194.88826 Z m 31.89234,-53.33995 -3.68716,-0.78849 4.30197,-3.23226 c 5.38156,-4.04339 14.5606,-8.61589 23.36166,-11.63752 9.63939,-3.30942 35.89172,-3.3115 45.39343,-0.005 l 6.65922,2.31832 -3.58507,1.93051 c -2.79037,1.50258 -7.80998,1.9522 -22.64478,2.02841 -17.53839,0.0902 -19.78859,0.36447 -28.19221,3.43765 -5.02289,1.83684 -10.39855,4.16925 -11.94589,5.18311 -2.97767,1.95102 -3.80442,2.01638 -9.66117,0.76388 z"
         id="path870"
         sodipodi:nodetypes="csssssscssssscsssssscssssssscsssssssscsssssccsccsssssscsssssssssssscsccssccscsscc" />
      <g
         id="g923"
         style="fill:url(#linearGradient931);fill-opacity:1;stroke-width:0.764075"
         transform="translate(-20.56878,-24.271845)">
        <text
           transform="translate(70.873771,-62.684596)"
           style="font-style:normal;font-weight:normal;font-size:70.5556px;line-height:1.25;font-family:sans-serif;white-space:pre;shape-inside:url(#rect884);fill:url(#linearGradient933);fill-opacity:1;stroke:none;stroke-width:0.764075;"
           id="text882"
           xml:space="preserve"><tspan
             x="58.251953"
             y="373.1083"><tspan
               style="font-style:normal;font-variant:normal;font-weight:normal;font-stretch:normal;font-size:70.5556px;font-family:Mistral;-inkscape-font-specification:Mistral;fill:url(#linearGradient933);fill-opacity:1;stroke-width:0.764075">AGRI</tspan></tspan></text>
        <text
           xml:space="preserve"
           id="text882-4"
           style="font-style:normal;font-weight:normal;font-size:70.5556px;line-height:1.25;font-family:sans-serif;white-space:pre;shape-inside:url(#rect884-9);fill:url(#linearGradient935);fill-opacity:1;stroke:none;stroke-width:0.764075;"
           transform="translate(195.81787,-62.030027)"><tspan
             x="58.251953"
             y="373.1083"><tspan
               style="font-style:normal;font-variant:normal;font-weight:normal;font-stretch:normal;font-family:Mistral;-inkscape-font-specification:Mistral;fill:url(#linearGradient935);fill-opacity:1;stroke-width:0.764075">CROWS</tspan></tspan></text>
      </g>
    </g>
  </g>
</svg>
