<?xml version="1.0" encoding="UTF-8" standalone="no"?>
<svg
   xmlns:dc="http://purl.org/dc/elements/1.1/"
   xmlns:cc="http://creativecommons.org/ns#"
   xmlns:rdf="http://www.w3.org/1999/02/22-rdf-syntax-ns#"
   xmlns:svg="http://www.w3.org/2000/svg"
   xmlns="http://www.w3.org/2000/svg"
   xmlns:sodipodi="http://sodipodi.sourceforge.net/DTD/sodipodi-0.dtd"
   xmlns:inkscape="http://www.inkscape.org/namespaces/inkscape"
   sodipodi:docname="logo2.svg"
   inkscape:version="1.0 (4035a4fb49, 2020-05-01)"
   id="svg8"
   version="1.1"
   viewBox="0 0 500 500"
   height="500mm"
   width="500mm"
   inkscape:export-filename="F:\hv\agricrowns\logo\logo2.png"
   inkscape:export-xdpi="254"
   inkscape:export-ydpi="254">
  <defs
     id="defs2">
    <filter
       style="color-interpolation-filters:sRGB;"
       inkscape:label="Drop Shadow"
       id="filter918">
      <feFlood
         flood-opacity="0.498039"
         flood-color="rgb(0,0,0)"
         result="flood"
         id="feFlood908" />
      <feComposite
         in="flood"
         in2="SourceGraphic"
         operator="in"
         result="composite1"
         id="feComposite910" />
      <feGaussianBlur
         in="composite1"
         stdDeviation="1"
         result="blur"
         id="feGaussianBlur912" />
      <feOffset
         dx="0"
         dy="-2.77556e-17"
         result="offset"
         id="feOffset914" />
      <feComposite
         in="SourceGraphic"
         in2="offset"
         operator="over"
         result="composite2"
         id="feComposite916" />
    </filter>
    <filter
       style="color-interpolation-filters:sRGB;"
       inkscape:label="Drop Shadow"
       id="filter936">
      <feFlood
         flood-opacity="0.498039"
         flood-color="rgb(0,0,0)"
         result="flood"
         id="feFlood926" />
      <feComposite
         in="flood"
         in2="SourceGraphic"
         operator="in"
         result="composite1"
         id="feComposite928" />
      <feGaussianBlur
         in="composite1"
         stdDeviation="1"
         result="blur"
         id="feGaussianBlur930" />
      <feOffset
         dx="0"
         dy="-2.77556e-17"
         result="offset"
         id="feOffset932" />
      <feComposite
         in="SourceGraphic"
         in2="offset"
         operator="over"
         result="composite2"
         id="feComposite934" />
    </filter>
    <filter
       id="filter877"
       inkscape:label="Drop Shadow"
       style="color-interpolation-filters:sRGB;">
      <feFlood
         id="feFlood867"
         result="flood"
         flood-color="rgb(0,0,0)"
         flood-opacity="0.498039" />
      <feComposite
         id="feComposite869"
         result="composite1"
         operator="in"
         in2="SourceGraphic"
         in="flood" />
      <feGaussianBlur
         id="feGaussianBlur871"
         result="blur"
         stdDeviation="1"
         in="composite1" />
      <feOffset
         id="feOffset873"
         result="offset"
         dy="-2.77556e-17"
         dx="0" />
      <feComposite
         id="feComposite875"
         result="composite2"
         operator="over"
         in2="offset"
         in="SourceGraphic" />
    </filter>
    <filter
       id="filter903"
       inkscape:label="Drop Shadow"
       style="color-interpolation-filters:sRGB;">
      <feFlood
         id="feFlood893"
         result="flood"
         flood-color="rgb(0,0,0)"
         flood-opacity="0.498039" />
      <feComposite
         id="feComposite895"
         result="composite1"
         operator="in"
         in2="SourceGraphic"
         in="flood" />
      <feGaussianBlur
         id="feGaussianBlur897"
         result="blur"
         stdDeviation="1"
         in="composite1" />
      <feOffset
         id="feOffset899"
         result="offset"
         dy="-2.77556e-17"
         dx="0" />
      <feComposite
         id="feComposite901"
         result="composite2"
         operator="over"
         in2="offset"
         in="SourceGraphic" />
    </filter>
  </defs>
  <sodipodi:namedview
     inkscape:window-maximized="1"
     inkscape:window-y="-8"
     inkscape:window-x="-8"
     inkscape:window-height="705"
     inkscape:window-width="1366"
     showgrid="false"
     inkscape:document-rotation="0"
     inkscape:current-layer="layer1"
     inkscape:document-units="mm"
     inkscape:cy="862.90254"
     inkscape:cx="603.08567"
     inkscape:zoom="0.25763929"
     inkscape:pageshadow="2"
     inkscape:pageopacity="0.0"
     borderopacity="1.0"
     bordercolor="#666666"
     pagecolor="#ffffff"
     id="base" />
  <metadata
     id="metadata5">
    <rdf:RDF>
      <cc:Work
         rdf:about="">
        <dc:format>image/svg+xml</dc:format>
        <dc:type
           rdf:resource="http://purl.org/dc/dcmitype/StillImage" />
        <dc:title />
      </cc:Work>
    </rdf:RDF>
  </metadata>
  <g
     id="layer1"
     inkscape:groupmode="layer"
     inkscape:label="Calque 1">
    <rect
       style="fill:none;fill-opacity:1;stroke-width:2"
       id="rect920"
       width="500"
       height="500"
       x="0"
       y="0" />
    <path
       transform="matrix(1.0433077,0,0,1.0428883,36.315887,18.19484)"
       id="path879"
       d="m 226.59131,399.8218 c -0.65744,-0.6574 -1.19533,-1.84663 -1.19533,-2.64272 0,-0.82542 -0.94107,-1.9341 -2.18976,-2.57983 -2.41739,-1.25006 -3.1348,-2.55047 -3.1348,-5.68216 0,-2.9437 2.9481,-5.43981 6.96127,-5.89402 1.81915,-0.20584 4.50558,-0.99687 5.96983,-1.75771 2.04509,-1.06268 4.40668,-1.38519 10.18696,-1.3912 6.89636,-0.006 7.67442,0.14202 9.31797,1.78552 2.35087,2.35087 2.32209,5.63363 -0.0719,8.21691 -1.02594,1.10698 -2.20088,2.01272 -2.61104,2.01272 -0.41014,0 -0.97926,0.77016 -1.26473,1.71146 -1.65877,5.46994 -9.46859,9.10005 -14.16756,6.58523 -1.12309,-0.60106 -1.78302,-0.60106 -2.38408,0 -1.20783,1.20786 -4.03478,1.01777 -5.41675,-0.3642 z m 54.77571,-3.26649 c -0.32769,-0.53019 -0.39036,-1.1694 -0.13915,-1.42046 0.68078,-0.68075 1.42302,0.32046 1.05532,1.42354 -0.25759,0.77294 -0.43681,0.77234 -0.91603,-0.003 z m -5.38766,-1.6234 c 0.52076,-1.6408 -0.73926,-2.14143 -1.43579,-0.5705 -0.27139,0.61207 -0.37006,0.54431 -0.27685,-0.19003 0.0796,-0.62753 -0.52162,-2.14094 -1.33597,-3.36309 -2.14859,-3.2245 -1.93789,-7.49241 0.49891,-10.10659 1.08879,-1.16804 1.82511,-2.63715 1.63628,-3.26468 -0.28289,-0.94056 -0.21389,-0.95588 0.39358,-0.0871 0.48335,0.69115 1.41718,0.88303 2.71379,0.55759 2.61594,-0.65655 6.86171,1.17442 8.49167,3.66205 0.94343,1.4399 1.19734,3.00126 0.93388,5.74305 -0.22453,2.33653 -0.0443,3.91108 0.47491,4.1491 0.46021,0.21101 0.32328,0.32167 -0.30426,0.24609 -1.82165,-0.21936 -4.94,1.76111 -3.84162,2.43996 0.5103,0.31538 -0.81265,0.40619 -2.93984,0.20182 -3.21748,-0.30917 -3.86767,-0.16359 -3.86767,0.86612 0,0.68078 -0.36534,1.23776 -0.8119,1.23776 -0.46577,0 -0.60606,-0.64861 -0.32907,-1.52131 z m 9.50814,-1.52132 c 0,-0.41835 0.34229,-0.76064 0.76064,-0.76064 0.41839,0 0.76068,0.34229 0.76068,0.76064 0,0.41836 -0.34229,0.76068 -0.76068,0.76068 -0.41835,0 -0.76064,-0.34232 -0.76064,-0.76068 z m -14.07205,-0.76064 c 0.25845,-0.41835 0.81239,-0.76064 1.23074,-0.76064 0.41836,0 0.54911,0.34229 0.29054,0.76064 -0.25845,0.41836 -0.81239,0.76064 -1.23075,0.76064 -0.41835,0 -0.5491,-0.34228 -0.29053,-0.76064 z m -74.60891,-3.63647 c -2.05604,-1.47738 -3.13925,-2.00677 -2.40713,-1.17641 1.80504,2.04719 1.67949,2.53093 -0.6568,2.53093 -1.77959,0 -1.9526,-0.24092 -1.65045,-2.29973 0.29028,-1.97779 -0.0437,-2.53681 -2.38577,-3.99341 l -2.72331,-1.69372 7.07451,-0.21936 c 3.89095,-0.12046 9.99087,-0.12046 13.55535,0 l 6.48084,0.21936 -6.77449,4.65927 -6.77451,4.65924 z m 6.53055,-2.42118 c 0,-0.37374 -0.5372,-1.21675 -1.1938,-1.87335 -0.90114,-0.90114 -1.5538,-1.00113 -2.66228,-0.40789 -1.82157,0.97485 -1.89528,2.69988 -0.15697,3.67269 1.38223,0.77352 4.01308,-0.13857 4.01308,-1.39145 z m -108.392924,3.82023 c -0.83671,-0.32702 -2.73604,-0.43497 -4.22073,-0.23977 -2.13741,0.28088 -3.20641,-0.0719 -5.13441,-1.69424 -1.33921,-1.12687 -2.43496,-2.39689 -2.43496,-2.82226 0,-0.42537 -0.86819,-1.80518 -1.92932,-3.06626 -1.79923,-2.13827 -1.85051,-2.41311 -0.76064,-4.07647 0.64277,-0.98098 1.16868,-2.58293 1.16868,-3.55985 0,-2.44316 1.37702,-3.60183 4.2805,-3.60183 1.67504,0 2.90435,0.57133 3.86954,1.79837 0.77803,0.98908 2.52917,2.37473 3.89144,3.07917 1.36227,0.70446 2.88988,2.18941 3.39469,3.2999 0.5048,1.11046 1.688,2.78989 2.6293,3.73208 0.941304,0.94217 1.711464,2.34777 1.711464,3.12356 0,3.05502 -3.452014,5.2055 -6.465554,4.02774 z M 288.5301,388.80181 c 0,-0.44306 0.34231,-0.59402 0.76067,-0.33545 0.41836,0.25846 0.76064,0.62107 0.76064,0.80555 0,0.18457 -0.34228,0.33544 -0.76064,0.33544 -0.41836,0 -0.76067,-0.36249 -0.76067,-0.80554 z m -19.77696,-0.71577 c 0,-0.41836 0.53367,-0.76064 1.1859,-0.76064 0.6522,0 0.9743,0.34228 0.71573,0.76064 -0.25845,0.41836 -0.7922,0.76064 -1.18587,0.76064 -0.39366,0 -0.71576,-0.34228 -0.71576,-0.76064 z m -159.1575,-5.32455 c -0.30885,-1.46428 -0.89056,-5.22144 -1.29267,-8.34927 -0.73549,-5.72124 -1.84822,-7.5863 -4.5665,-7.65395 -0.65217,-0.0172 -4.383054,-1.68751 -8.290854,-3.71397 -3.91574,-2.03061 -7.72513,-3.52234 -8.48641,-3.32328 -0.75975,0.19866 -2.39612,1.62398 -3.63638,3.16734 -2.98927,3.71975 -12.99704,11.86744 -13.69257,11.14759 -0.30155,-0.31204 2.76957,-3.69644 6.82465,-7.52087 7.23804,-6.82632 8.52861,-8.85818 7.07379,-11.13706 -0.40062,-0.62754 -1.4217,-4.56392 -2.26904,-8.74751 -1.38631,-6.84451 -1.71779,-7.63169 -3.30879,-7.8578 -0.97247,-0.13828 -2.4326,0.35005 -3.24473,1.08502 -1.74056,1.57519 -12.93153,6.56478 -13.48423,6.01208 -0.50633,-0.50632 -0.71361,-0.37345 7.09947,-4.55065 3.76523,-2.01307 6.97805,-3.77041 7.13959,-3.90525 0.16157,-0.13483 0.38326,-2.73722 0.49267,-5.78307 0.10925,-3.04587 0.49066,-7.24939 0.84724,-9.3412 0.59876,-3.51256 0.67738,-3.17021 1.02864,4.47916 l 0.38032,8.2824 11.24082,-11.83141 11.240794,-11.83144 -4.106054,-6.16918 c -2.25832,-3.39302 -5.6052,-9.25753 -7.43755,-13.03223 l -3.3315,-6.86309 -3.73226,0.50518 c -9.99182,1.35244 -20.58245,5.56473 -24.17033,9.6134 -2.67406,3.01753 -2.75169,3.2564 -1.71146,5.26794 1.49187,2.88497 1.36845,4.66563 -0.48689,7.02432 -1.829738,2.32611 -4.151858,2.55556 -6.811568,0.67307 -1.19134,-0.84321 -3.28697,-1.33117 -5.71701,-1.33117 -6.6837,0 -10.11909,-3.90676 -7.9772,-9.07179 0.53324,-1.28589 1.04238,-3.49925 1.13142,-4.91856 0.0891,-1.41931 0.67799,-2.95963 1.30877,-3.42295 0.63078,-0.46329 1.56967,-2.12607 2.08643,-3.69511 1.65359,-5.02094 7.43983,-4.59858 9.94916,0.72617 1.00938,2.14192 1.60511,2.48053 5.165368,2.93588 2.98007,0.38116 4.95392,0.16905 7.60651,-0.81768 5.45082,-2.0275 14.74743,-6.96569 17.60563,-9.35183 l 2.5513,-2.12993 -2.05354,-7.78551 c -4.14852,-15.72808 -5.1823,-31.30392 -3.14006,-47.31027 1.92024,-15.0503 5.76114,-27.06987 13.28025,-41.5589 2.46811,-4.75596 4.31204,-9.2229 4.10853,-9.95298 -0.20297,-0.7285 -3.60119,-3.86773 -7.55137,-6.97608 -3.95018,-3.10834 -7.08854,-5.85284 -6.97418,-6.09888 0.11443,-0.24609 3.43302,-4.45621 7.3748,-9.35591 4.48818,-5.57896 7.47331,-8.68044 7.98683,-8.29825 0.45101,0.33571 3.38721,2.67128 6.524914,5.19021 9.12581,7.32618 8.29264,7.24445 14.89718,1.46135 3.12618,-2.73734 7.52435,-6.26819 9.77373,-7.84631 4.94573,-3.46987 5.00182,-2.56927 -1.21717,-19.54832 -2.4406,-6.66331 -4.43745,-12.17278 -4.43745,-12.24327 0,-0.0704 2.4504,0.33516 5.44533,0.90146 2.99493,0.56629 5.57171,0.90326 5.72618,0.74882 0.15438,-0.15438 -0.0805,-1.23152 -0.52237,-2.39347 -0.44179,-1.16192 -0.6779,-2.23791 -0.52473,-2.39109 0.15323,-0.15323 2.09207,0.0656 4.30868,0.4858 6.14824,1.16601 6.30383,1.12145 5.69889,-1.63277 l -0.52648,-2.3971 3.3185,0.46554 c 1.82517,0.25615 4.40324,0.68742 5.72906,0.95858 l 2.41058,0.49301 -2.20376,-8.64009 c -2.54924,-9.99467 -2.40305,-9.21281 -1.63384,-8.73741 0.33179,0.20498 2.51244,-0.40312 4.84588,-1.35152 l 4.24262,-1.72434 3.67024,7.45948 c 2.01862,4.10272 3.75727,7.37241 3.86367,7.26604 0.10638,-0.10637 -0.63834,-3.43382 -1.65496,-7.39423 -1.01666,-3.96041 -1.85529,-7.5539 -1.86369,-7.98551 -0.009,-0.43161 1.544,-1.24515 3.44971,-1.80782 1.90575,-0.56271 3.90818,-1.46629 4.4499,-2.00801 0.80609,-0.80609 1.83166,0.76487 5.64927,8.65372 2.56539,5.30124 6.05355,13.55665 7.75144,18.34538 1.69789,4.78873 3.45739,9.15297 3.90998,9.69832 0.88734,1.0692 5.84977,1.29048 11.51782,0.5136 3.42758,-0.46982 3.49968,-0.53787 4.23071,-3.99345 0.40904,-1.93351 0.9798,-6.27235 1.26829,-9.64188 0.45703,-5.33723 0.31046,-6.62416 -1.13763,-9.99033 -1.51268,-3.51632 -1.93185,-3.90702 -4.65981,-4.34323 -2.92985,-0.46852 -6.01885,-2.68548 -6.01885,-4.31972 0,-0.45055 1.00533,-1.8245 2.23406,-3.05323 1.22874,-1.22874 2.44985,-2.91389 2.71354,-3.74477 0.26363,-0.83085 1.01024,-1.51067 1.65893,-1.51067 0.64873,0 2.34903,-1.02686 3.77849,-2.281961 1.42943,-1.25507 3.11151,-2.28196 3.73792,-2.28196 2.56065,0 6.45353,2.30059 7.33417,4.334241 0.5076,1.17221 1.70638,3.09889 2.66398,4.28148 0.9576,1.18256 1.74107,2.97961 1.74107,3.99342 0,4.01244 -5.31352,6.28417 -8.70271,3.7207 -2.64339,-1.99935 -3.46958,-1.40048 -3.44397,2.49631 l 0.023,3.61309 1.87401,-3.0426 c 2.25855,-3.66702 2.47072,-2.99548 0.36048,1.14097 -1.21976,2.39091 -1.50685,4.3827 -1.44829,10.04834 0.0403,3.88649 0.46959,8.77375 0.95427,10.86058 l 0.88127,3.79427 7.57848,0.94337 c 24.2588,3.0198 48.49752,13.69608 66.13463,29.12992 2.38442,2.08655 4.60465,3.79373 4.9338,3.79373 0.32918,0 1.15557,-0.61555 1.8364,-1.36785 1.1642,-1.28644 0.83151,-1.77244 -5.587,-8.16117 -3.75368,-3.73631 -6.82488,-7.18591 -6.82488,-7.66579 0,-0.75164 22.69306,-20.07635 25.66876,-21.85868 0.77988,-0.46714 4.70979,2.92962 14.51333,12.5443 7.39414,7.25169 13.74322,13.76511 14.10908,14.47423 0.52599,1.01953 -1.68081,3.92597 -10.54498,13.88835 -6.1656,6.92944 -11.60648,12.59898 -12.09084,12.59898 -0.48437,0 -3.93764,-3.0712 -7.67396,-6.82488 -6.38873,-6.41848 -6.87473,-6.75119 -8.16113,-5.587 -0.75234,0.68083 -1.36788,1.46706 -1.36788,1.74714 0,0.28001 1.91327,2.70867 4.25169,5.39685 2.33842,2.68816 6.65518,8.48166 9.59276,12.87443 2.9376,4.39277 5.40764,8.06293 5.48894,8.15594 0.56279,0.64354 14.32134,-3.47703 20.94518,-6.27293 8.71846,-3.68002 12.26929,-6.16225 15.51502,-10.84587 l 2.09084,-3.01707 -1.65287,-3.1711 c -2.99401,-5.74415 -0.53956,-11.4718 4.91594,-11.4718 1.32484,0 3.25508,0.59402 4.28947,1.31999 1.41141,0.9906 3.4419,1.3228 8.1367,1.33117 5.68576,0.0115 6.43324,0.1883 8.20061,1.95364 2.76362,2.76063 3.23893,6.74596 1.25786,10.54676 -0.93118,1.78647 -1.28488,3.23524 -0.85479,3.50106 1.23086,0.76073 0.81883,3.85415 -0.69596,5.22499 -0.78632,0.71163 -1.64686,2.6521 -1.91233,4.31219 -0.26535,1.66008 -1.16241,3.6981 -1.99326,4.52895 -3.08132,3.08133 -9.02073,1.02703 -11.76532,-4.06934 -1.49411,-2.77446 -1.52398,-2.78725 -6.50266,-2.78725 -4.27976,0 -5.91,0.43926 -11.29493,3.04335 -7.86749,3.80465 -15.34862,8.63722 -20.11944,12.99652 -3.40467,3.11102 -3.61488,3.50992 -2.87126,5.44855 0.44127,1.15048 1.29572,2.09181 1.89876,2.09181 0.60301,0 1.21051,0.32829 1.34997,0.72951 0.1449,0.41646 5.14982,-0.36724 11.66332,-1.82626 6.27537,-1.40565 12.22803,-2.67524 13.22816,-2.82131 1.77562,-0.25932 1.90519,0.11758 5.51096,16.02886 2.03092,8.96191 3.53093,16.45604 3.33336,16.65363 -0.1975,0.19751 -5.98063,1.62047 -12.85125,3.16199 -7.13215,1.60021 -13.01424,3.32498 -13.7091,4.01981 -1.6416,1.6416 -1.70238,8.17157 -0.0762,8.17157 0.62757,0 1.141,0.51343 1.141,1.14097 0,0.62756 -0.51343,1.14099 -1.141,1.14099 -0.62753,0 -1.14096,0.51343 -1.14096,1.14099 0,0.63386 0.67612,1.14097 1.52131,1.14097 1.30438,0 1.52474,-0.51516 1.54549,-3.6131 0.0201,-3.1676 0.14864,-3.44896 1.03468,-2.28195 0.55575,0.73212 1.7654,1.33113 2.68807,1.33113 0.9227,0 2.33971,0.35434 3.14894,0.78741 1.2306,0.65861 1.47129,0.53419 1.47129,-0.76064 0,-0.85143 0.34228,-1.54808 0.76064,-1.54808 0.41836,0 0.76067,0.49072 0.76067,1.09045 0,0.62414 0.89453,1.1934 2.09178,1.33117 2.8919,0.33274 2.63005,1.71008 -0.38032,2.00033 -3.24283,0.31267 -3.40846,2.42392 -0.19032,2.42392 1.52129,0 2.28196,0.38032 2.28196,1.14099 0,0.76064 -0.76067,1.14096 -2.28196,1.14096 -2.95146,0 -3.11522,2.08506 -0.19003,2.42162 2.48645,0.28606 2.50689,1.65451 0.0302,2.01655 -2.8509,0.41672 -3.20032,1.4564 -0.67581,2.01088 3.08711,0.67802 3.14325,2.67878 0.0753,2.67878 -2.98229,0 -2.9387,1.19981 0.0653,1.80061 2.74938,0.54988 2.65034,2.38298 -0.1288,2.38298 -1.01104,0 -2.25522,0.51346 -2.76488,1.14099 -0.759,0.93457 -0.93098,0.48741 -0.95082,-2.47213 l -0.023,-3.61309 h -3.42292 c -3.39489,0 -4.5324,0.93279 -2.21974,1.82024 0.66175,0.25386 2.03092,0.46171 3.0426,0.46171 1.12794,0 1.83942,0.44133 1.83942,1.14096 0,0.82407 -0.84516,1.141 -3.0426,1.141 -1.67345,0 -3.04262,0.34228 -3.04262,0.76064 0,0.41836 -0.34229,0.76067 -0.76065,0.76067 -0.41835,0 -0.76064,-0.51346 -0.76064,-1.14099 0,-0.62754 -0.62158,-1.14097 -1.38128,-1.14097 -1.13696,0 -1.80627,1.71744 -3.78423,9.71054 -1.32166,5.3408 -3.30456,11.92994 -4.40649,14.64255 -2.69349,6.63063 -9.763,20.84407 -10.9656,22.04667 -0.2093,0.2093 -1.55527,2.09178 -2.99131,4.18359 -1.43605,2.09179 -3.97749,5.46255 -5.64772,7.4906 l -3.03674,3.68735 1.46413,2.73205 c 0.80527,1.50263 4.11031,5.5304 7.34452,8.95062 4.6915,4.96128 6.56979,6.41158 9.29014,7.17323 3.24485,0.9085 3.52426,0.8583 5.7779,-1.03801 1.30251,-1.09597 3.1446,-1.99269 4.09355,-1.99269 2.62835,0 4.49276,2.51808 4.05796,5.48069 -0.21849,1.48955 0.0819,3.18281 0.74466,4.19412 0.6112,0.93285 1.1457,2.91084 1.18779,4.39558 0.1081,3.81644 -2.29469,6.06867 -6.30409,5.90877 -1.67733,-0.067 -3.04973,0.18571 -3.04973,0.56109 0,1.0283 -9.64988,0.38162 -10.99775,-0.73701 -1.61316,-1.33881 -1.46901,-3.47544 0.46683,-6.91984 1.59396,-2.83606 1.60351,-3.0114 0.34355,-6.31056 -1.42377,-3.72803 -8.75115,-10.47311 -15.68605,-14.43947 l -3.77964,-2.16173 -5.27985,4.44369 c -2.90394,2.44404 -5.30276,4.92704 -5.33077,5.51783 -0.14029,2.96314 6.89808,12.63153 10.55289,14.49608 2.38623,1.21735 2.92892,1.26001 4.20049,0.33024 1.81013,-1.32361 4.53209,-1.38088 5.55872,-0.11701 0.87179,1.07329 0.85977,7.74583 -0.0144,8.62086 -0.31377,0.31368 -0.57047,1.36903 -0.57047,2.34521 0,2.40396 -2.58083,4.81989 -5.13441,4.80638 -2.96877,-0.0144 -8.7638,-2.12416 -9.88849,-3.59777 -1.39011,-1.82143 -1.1757,-3.0813 0.87305,-5.13001 1.00311,-1.00312 2.00294,-2.27115 2.2219,-2.81787 0.25845,-0.64547 0.41913,-0.52729 0.45811,0.33711 0.0667,1.47621 1.21557,1.77773 1.9913,0.52254 0.27485,-0.44472 -0.10752,-1.47968 -0.8499,-2.29992 -0.89551,-0.98951 -1.52436,-1.2087 -1.86881,-0.65137 -0.28892,0.46749 -0.71214,-0.12506 -0.95435,-1.33605 -0.47539,-2.377 -9.19665,-12.39906 -10.78969,-12.39906 -0.54281,0 -3.12968,1.43086 -5.7486,3.17973 -7.13215,4.76265 -19.71294,10.83862 -28.19325,13.61609 -4.76409,1.56033 -7.53297,2.85774 -7.53297,3.5297 0,0.61753 0.3727,0.83217 0.8899,0.51251 0.60652,-0.37483 0.72787,-0.12765 0.38101,0.77622 -0.69115,1.80113 0.21073,5.12279 1.22143,4.49819 0.51409,-0.3177 0.62311,-0.0172 0.29919,0.82812 -0.2803,0.7304 -0.50957,1.81343 -0.50957,2.40675 0,0.59333 -0.34229,1.07875 -0.76067,1.07875 -0.41836,0 -0.76065,-0.51343 -0.76065,-1.14096 0,-0.62753 -0.34228,-1.14099 -0.76064,-1.14099 -0.41835,0 -0.76067,0.6846 -0.76067,1.52131 0,0.83671 -0.34229,1.52131 -0.76064,1.52131 -0.41836,0 -0.76064,-0.51345 -0.76064,-1.14099 0,-0.62753 -0.34229,-1.14096 -0.76067,-1.14096 -0.41836,0 -0.76065,0.68457 -0.76065,1.52128 0,0.83672 -0.34228,1.52132 -0.76064,1.52132 -0.41836,0 -0.76067,-0.51343 -0.76067,-1.141 0,-0.62753 -0.34229,-1.14096 -0.76064,-1.14096 -0.41836,0 -0.76065,0.6846 -0.76065,1.52131 0,0.83672 -0.34228,1.52129 -0.76067,1.52129 -0.41835,0 -0.76064,-0.51343 -0.76064,-1.14096 0,-0.62754 -0.34229,-1.141 -0.76064,-1.141 -0.41836,0 -0.76067,0.6846 -0.76067,1.52132 0,0.83671 -0.34229,1.52131 -0.76064,1.52131 -0.41836,0 -0.76065,-0.51346 -0.76065,-1.14099 0,-0.62754 -0.27398,-1.14097 -0.60853,-1.14097 -0.33469,0 -0.60853,-1.22108 -0.60853,-2.71353 0,-1.54253 -0.47594,-3.01466 -1.10293,-3.41128 -0.71985,-0.45541 -0.78097,-0.70182 -0.17594,-0.70941 0.5098,-0.006 0.72991,-0.5251 0.48911,-1.15264 -0.52401,-1.36555 -2.53351,-1.46565 -5.18352,-0.25816 -1.92377,0.87653 -1.93742,0.94892 -1.93742,10.26881 v 9.38605 h -11.76739 -11.76739 l -0.21274,-9.67098 -0.21303,-9.67098 -2.28196,-0.54925 c -1.25507,-0.30206 -5.53373,-1.12653 -9.50814,-1.83215 -3.97442,-0.70558 -10.55956,-2.36529 -14.6337,-3.68824 -4.57093,-1.48426 -7.53352,-2.10388 -7.73663,-1.61811 -0.19262,0.46108 -0.35399,0.41079 -0.38918,-0.12132 -0.073,-1.10658 -15.6552,-8.83875 -18.3157,-9.08867 -1.4597,-0.13713 -3.49255,1.31435 -8.7475,6.24567 -3.76521,3.53335 -6.16127,6.18671 -5.32456,5.89635 2.49605,-0.86621 0.42641,1.15807 -5.97304,5.84212 -5.86993,4.29646 -7.05686,6.05055 -5.74846,8.49532 0.41312,0.77194 0.65226,4.39624 0.53143,8.05404 -0.16991,5.14367 -0.34695,6.04731 -0.78129,3.98824 z m 100.58732,-13.69174 v -7.60654 h -4.18359 -4.18359 v 7.09944 c 0,3.90466 0.22827,7.32761 0.5071,7.60651 0.27887,0.27886 2.16153,0.5071 4.18359,0.5071 h 3.67649 z m -6.84587,4.56391 c 0,-0.84516 0.50711,-1.52131 1.14096,-1.52131 0.63389,0 1.141,0.67615 1.141,1.52131 0,0.84517 -0.50711,1.52129 -1.141,1.52129 -0.63385,0 -1.14096,-0.67612 -1.14096,-1.52129 z m 3.0426,0 c 0,-1.01421 0.5071,-1.52131 1.52131,-1.52131 1.01421,0 1.52129,0.5071 1.52129,1.52131 0,1.01418 -0.50708,1.52129 -1.52129,1.52129 -1.01421,0 -1.52131,-0.50711 -1.52131,-1.52129 z m -3.0426,-4.18359 c 0,-1.18325 0.43104,-1.90163 1.14096,-1.90163 0.70996,0 1.141,0.71838 1.141,1.90163 0,1.18323 -0.43104,1.90164 -1.141,1.90164 -0.70992,0 -1.14096,-0.71841 -1.14096,-1.90164 z m 3.0426,0 c 0,-1.39453 0.40568,-1.90163 1.52131,-1.90163 1.11561,0 1.52129,0.5071 1.52129,1.90163 0,1.39453 -0.40568,1.90164 -1.52129,1.90164 -1.11563,0 -1.52131,-0.50711 -1.52131,-1.90164 z m -8.36715,3.0426 v -3.42292 h -3.42295 -3.42292 v 3.42292 3.42295 h 3.42292 3.42295 z m 25.80868,-6.65569 c -0.0293,-0.52295 -0.31265,-1.61268 -0.62943,-2.42165 -0.7436,-1.89879 -1.66184,-0.4549 -1.09333,1.71914 0.45907,1.75547 1.813,2.30757 1.72276,0.70251 z m 2.60213,-1.91475 c -0.24436,-0.93411 -0.78312,-1.69835 -1.19745,-1.69835 -0.41433,0 -0.54554,0.54143 -0.2916,1.20318 0.25385,0.66175 0.46168,1.75708 0.46168,2.4341 0,0.79281 0.2619,0.96904 0.73574,0.49514 0.40468,-0.40464 0.53589,-1.49998 0.29163,-2.43407 z m -106.58601,-10.24866 11.96205,-12.36764 -2.16727,-1.9016 c -4.83979,-4.24661 -11.60395,-9.215 -12.2375,-8.98865 -0.37123,0.13253 -7.09805,6.23127 -14.94847,13.55256 -12.328224,11.49726 -14.019394,13.34191 -12.409044,13.53534 2.84179,0.34136 17.437194,5.59284 17.978544,6.46873 0.30376,0.4915 -0.32469,0.59672 -1.73357,0.29023 -1.21554,-0.2645 -3.0658,-0.66431 -4.11169,-0.88867 -1.20938,-0.25931 -0.79402,0.14202 1.14097,1.10273 1.67342,0.83085 3.38491,1.52278 3.80326,1.53762 0.41836,0.0144 6.14359,-5.53845 12.72272,-12.34065 z m 109.62861,9.48799 c -0.24436,-0.93408 -0.78312,-1.69835 -1.19745,-1.69835 -0.41433,0 -0.54554,0.54143 -0.2916,1.20321 0.25385,0.66174 0.46171,1.75708 0.46171,2.43409 0,0.79279 0.2619,0.96902 0.73574,0.49515 0.40464,-0.40464 0.53588,-1.49998 0.2916,-2.4341 z m 3.0426,-0.76064 c -0.40835,-1.5615 -1.80159,-2.44551 -1.77761,-1.12785 0.0328,1.79253 1.04638,4.00155 1.58787,3.46006 0.34864,-0.34861 0.43402,-1.39812 0.18974,-2.33221 z m -9.8801,-2.07867 c -0.24092,-0.62754 -0.74351,-1.14099 -1.1171,-1.14099 -0.37359,0 -0.67928,0.51345 -0.67928,1.14099 0,0.62753 0.5027,1.14096 1.11713,1.14096 0.68046,0 0.94596,-0.44595 0.67925,-1.14096 z m 2.76753,-0.38032 c 0,-0.41836 -0.34229,-0.76067 -0.76064,-0.76067 -0.41836,0 -0.76065,0.34231 -0.76065,0.76067 0,0.41835 0.34229,0.76064 0.76065,0.76064 0.41835,0 0.76064,-0.34229 0.76064,-0.76064 z m 3.04263,-0.76067 c 0,-0.41836 -0.34229,-0.76065 -0.76068,-0.76065 -0.41835,0 -0.76064,0.34229 -0.76064,0.76065 0,0.41835 0.34229,0.76067 0.76064,0.76067 0.41839,0 0.76068,-0.34232 0.76068,-0.76067 z m 3.04259,-0.76065 c 0,-0.41835 -0.34228,-0.76064 -0.76064,-0.76064 -0.41835,0 -0.76067,0.34229 -0.76067,0.76064 0,0.41836 0.34232,0.76065 0.76067,0.76065 0.41836,0 0.76064,-0.34229 0.76064,-0.76065 z m -128.26339,-19.72782 11.06735,-11.74097 -3.20495,-3.47898 c -1.76272,-1.91342 -4.33205,-4.78807 -5.70962,-6.38807 l -2.5047,-2.90909 -8.799834,8.24057 c -4.8399,4.53232 -10.38752,9.71776 -12.32802,11.52323 -1.9405,1.80546 -3.06206,3.04524 -2.49234,2.75499 0.56972,-0.29022 1.25432,-0.19751 1.52131,0.20555 0.26708,0.40335 3.05263,2.56416 6.19033,4.80181 3.1377,2.23766 5.8475,4.17641 6.02184,4.30837 0.17422,0.13195 0.12649,0.4304 -0.10637,0.66324 -0.23287,0.23286 -2.68597,-0.96149 -5.45137,-2.65409 -2.76537,-1.6926 -5.02795,-2.6751 -5.02795,-2.18334 0,0.80506 2.58632,10.78178 3.49922,13.49831 0.42178,1.25507 0.77579,0.91502 17.325154,-16.64165 z m 188.35492,12.95918 c 0,-0.32654 -0.85575,-0.98357 -1.90164,-1.46014 -2.19634,-1.0007 -2.43263,-0.46458 -0.65898,1.49524 1.17123,1.29422 2.56062,1.27516 2.56062,-0.0351 z m -78.32722,-4.67621 c 48.09178,-5.93705 85.50209,-39.93545 95.97163,-87.21884 2.24605,-10.14378 2.41768,-32.31824 0.3255,-42.05693 -8.76432,-40.79654 -36.56112,-71.95987 -75.22911,-84.34039 -11.68065,-3.73985 -19.86579,-4.94248 -33.63872,-4.94248 -18.88847,0 -32.83722,3.20874 -49.44238,11.37364 -30.29756,14.89758 -51.587074,42.37915 -59.168744,76.37797 -2.34509,10.51623 -2.3312,32.91953 0.0259,43.50614 6.52402,29.28856 22.807624,53.34608 46.971374,69.39593 21.80113,14.48058 48.91404,21.02455 74.18351,17.90496 z m -21.3182,-7.24447 c -1.04589,-0.18256 -4.46884,-0.70685 -7.60651,-1.16532 -10.32554,-1.50866 -23.59003,-6.32329 -33.71927,-12.2391 l -5.23716,-3.05864 3.5905,-3.64532 3.59047,-3.64529 3.90746,2.9878 c 2.1491,1.64329 6.12515,4.09038 8.8357,5.43797 4.45679,2.21577 5.5862,2.45016 11.80608,2.45016 6.21992,0 7.34933,-0.2343 11.80612,-2.45016 2.71052,-1.34759 6.67162,-3.78335 8.80241,-5.41279 l 3.87419,-2.96264 3.352,2.58643 c 1.84362,1.42256 5.74808,3.828 8.67658,5.34546 4.37072,2.26473 6.34655,2.81847 11.02946,3.09095 7.02655,0.40887 11.88037,-1.22451 20.22561,-6.80614 l 5.6916,-3.80677 3.3185,2.92587 c 1.82516,1.60923 3.24583,3.26817 3.15702,3.68652 -0.27714,1.30579 -11.12692,7.11212 -19.08132,10.21152 -11.11872,4.33237 -20.80221,6.22388 -33.4687,6.53757 -5.85701,0.14518 -11.50485,0.11442 -12.55074,-0.0681 z m -23.33255,-25.46235 c -4.47362,-0.88455 -10.8551,-4.04944 -15.29841,-7.58724 -3.43399,-2.73421 -3.88543,-2.90012 -4.82165,-1.77207 -1.57257,1.89488 -11.41052,8.63251 -12.6047,8.63251 -0.57849,0 -3.41815,-2.22245 -6.31033,-4.93877 -5.18328,-4.86811 -5.22911,-4.94524 -3.20265,-5.39206 7.93371,-1.74932 14.60297,-5.48146 20.24572,-11.32951 l 3.04024,-3.15087 5.42239,3.89038 c 8.60033,6.17047 12.42674,7.58587 20.50793,7.58587 8.09062,0 11.9061,-1.41434 20.55416,-7.61904 l 5.46865,-3.92356 4.48358,3.35898 c 2.46598,1.84744 6.70851,4.44984 9.42782,5.78307 4.44481,2.17924 5.63579,2.4241 11.7901,2.4241 5.99225,0 7.46239,-0.28376 11.7901,-2.2746 2.71935,-1.25102 7.024,-3.84498 9.56593,-5.76436 l 4.6217,-3.48976 4.81782,4.52844 c 5.12309,4.81532 13.74585,9.49351 18.07634,9.80713 1.35966,0.0986 2.47213,0.42126 2.47213,0.71735 0,0.8205 -10.13291,9.78721 -11.06013,9.78721 -1.14131,0 -7.76713,-4.28395 -11.29202,-7.30091 l -2.95552,-2.52963 -3.12971,2.6791 c -7.69528,6.58744 -17.98178,9.59261 -27.19749,7.94566 -5.60336,-1.00136 -14.29115,-4.94104 -18.96865,-8.60174 l -2.4483,-1.91607 -3.56494,2.56117 c -9.66641,6.94459 -20.08394,9.73718 -29.43011,7.88922 z M 115.6401,290.41822 c -3.50563,-5.12921 -10.42711,-18.29906 -10.42711,-19.84021 0,-1.40621 2.45623,-2.66904 14.80498,-7.61177 21.54167,-8.6223 41.54057,-13.04043 69.05689,-15.25595 l 5.89505,-0.47467 v -15.03463 c 0,-14.78668 -0.52743,-18.92444 -2.71098,-21.26849 -0.77453,-0.83143 -0.76004,-0.4177 0.0667,1.90163 0.65243,1.83077 1.06915,6.23041 1.08976,11.50589 l 0.0334,8.54163 -8.17703,-4.24284 c -4.49733,-2.33359 -9.33238,-5.3216 -10.74453,-6.64003 -1.71181,-1.59821 -2.3055,-1.8901 -1.78132,-0.87584 1.32292,2.55979 4.29186,4.90324 10.1533,8.01432 7.30741,3.8785 5.95781,3.86833 -2.06637,-0.0144 -10.52974,-5.09669 -13.50647,-10.06423 -14.49995,-24.19738 l -0.50785,-7.2249 4.73068,0.53519 c 7.47886,0.84615 15.86393,3.26733 19.26983,5.56421 1.75728,1.18507 3.92666,3.61261 4.9455,5.53405 l 1.81501,3.42295 -0.23747,-21.29828 c -0.22165,-19.86881 -0.34657,-21.53416 -1.86276,-24.81319 -0.89393,-1.9332 -1.99217,-3.74166 -2.4406,-4.0188 -0.44842,-0.27714 -0.11758,1.07341 0.73517,3.00126 1.28575,2.90662 1.62548,5.72109 1.98955,16.48261 0.25903,7.65725 0.15611,12.8572 -0.25098,12.68411 -0.37945,-0.16129 -5.89818,-2.98071 -12.26379,-6.26523 -8.47678,-4.37382 -12.39504,-6.86271 -14.64256,-9.301 -3.5664,-3.86908 -4.02751,-3.39369 -0.89826,0.92612 2.53118,3.49419 4.18115,4.67615 13.42296,9.61566 8.14049,4.35091 5.86055,4.00797 -3.80327,-0.57207 -8.10623,-3.84183 -12.23744,-7.23991 -15.02207,-12.3562 -2.99786,-5.50803 -4.34881,-11.61025 -4.88921,-22.08471 -0.56411,-10.93329 -1.78244,-10.09062 11.2209,-7.7612 15.01534,2.68984 21.54118,5.39412 26.22684,10.86826 5.29129,6.18168 5.2254,5.5843 5.48949,49.75825 0.23028,38.50308 0.28289,39.74407 1.68771,39.74407 1.39884,0 1.45818,-1.09494 1.67961,-30.99657 l 0.22941,-30.99659 2.05579,-3.89708 c 2.66507,-5.05207 7.86525,-9.57726 13.35043,-11.61743 4.23669,-1.57582 15.41489,-3.95794 23.57718,-5.02442 4.64656,-0.60709 4.28637,-1.87561 3.24019,11.41111 -1.55504,19.74921 -6.17406,26.42227 -23.44258,33.86712 -3.85847,1.66348 -7.26661,3.01716 -7.57365,3.00819 -0.30704,-0.009 3.03584,-1.88968 7.42861,-4.17931 5.82723,-3.03728 9.06665,-5.30492 11.98028,-8.3863 4.97994,-5.26668 5.28677,-6.88732 0.38032,-2.00872 -2.5892,2.57448 -6.92542,5.28292 -15.30119,9.55719 l -11.68807,5.96459 0.29108,-13.20651 c 0.25615,-11.61743 0.48738,-13.60232 1.92256,-16.49632 1.45071,-2.92527 1.47538,-3.14856 0.22281,-2.0149 -3.17594,2.87418 -3.95604,7.45253 -4.27358,25.0817 -0.29145,16.18106 -0.25673,16.67152 1.04621,14.8342 3.57293,-5.03773 7.2184,-6.78935 18.05018,-8.67296 l 5.95004,-1.03468 -0.42686,6.58903 c -0.23488,3.62399 -1.00679,8.03838 -1.71557,9.80975 -1.57738,3.9423 -6.63362,8.52725 -11.7473,10.65241 -4.8618,2.02049 -4.93066,1.49975 -0.1239,-0.93607 4.24767,-2.15247 8.47559,-5.50984 8.47559,-6.73041 0,-0.45944 -0.9413,0.0328 -2.09178,1.0939 -1.15048,1.0611 -5.14114,3.56871 -8.86811,5.57246 l -6.77626,3.64317 0.44949,-7.90225 c 0.24724,-4.34623 0.69417,-8.58683 0.99319,-9.42357 0.45602,-1.27597 0.3723,-1.36219 -0.51909,-0.53462 -0.79011,0.73356 -1.12555,3.78289 -1.30748,11.88578 l -0.24465,10.89905 6.71026,0.50843 c 20.65593,1.56498 35.07668,3.99215 50.71381,8.53565 9.74489,2.83147 24.01989,8.21921 30.7417,11.60269 l 4.0046,2.01576 -3.10188,6.44842 c -1.70602,3.54662 -4.86109,9.14113 -7.01123,12.43226 l -3.90938,5.98386 -5.75915,-0.3334 c -6.95532,-0.40263 -14.55571,-3.7446 -21.73118,-9.55541 l -4.59887,-3.72421 -3.38799,2.63606 c -1.8634,1.44984 -5.61288,3.70265 -8.33222,5.00624 -4.56624,2.18898 -5.55484,2.3701 -12.9311,2.36938 -9.23707,-7.7e-4 -13.21361,-1.25081 -21.35827,-6.71316 l -4.8957,-3.28337 -3.03685,2.24749 c -1.67029,1.23612 -5.60408,3.46075 -8.74175,4.94363 -4.79839,2.26775 -6.74413,2.74901 -12.2452,3.02885 -8.46033,0.4304 -13.26349,-0.95559 -20.81498,-6.00634 -5.12227,-3.42596 -5.95076,-3.75425 -7.18654,-2.84762 -12.41599,9.10917 -17.39588,11.45831 -25.1543,11.86606 l -5.71994,0.30063 z m -11.46104,-25.38458 c -0.62236,-1.007 -2.76934,-13.14806 -2.76934,-15.66044 0,-2.293 0.1288,-2.39049 3.23277,-2.44816 1.77805,-0.0331 3.73209,-0.20412 4.34235,-0.38032 0.84591,-0.24408 1.23905,0.76424 1.65453,4.24365 0.29974,2.51014 0.87906,6.03003 1.28739,7.82195 l 0.74238,3.25805 -3.70279,1.87636 c -4.10775,2.08155 -4.27035,2.12533 -4.78729,1.28891 z m 189.62054,-1.29552 -3.47797,-1.81214 1.09263,-5.94913 c 0.60097,-3.27204 1.2129,-6.64594 1.3598,-7.49758 0.23402,-1.35715 0.82432,-1.54506 4.77789,-1.52128 l 4.51079,0.0259 -0.33777,2.66228 c -0.98725,7.78159 -2.83205,15.96967 -3.59091,15.93827 -0.47105,-0.0201 -2.42156,-0.85085 -4.33446,-1.84753 z m -172.86795,-6.81229 c -1.02134,-2.66159 -2.11352,-17.30969 -1.67699,-22.49147 1.97742,-23.47217 13.12492,-45.41735 29.6313,-58.33272 l 5.3069,-4.15234 2.05061,4.04666 2.05059,4.04669 -3.15047,2.6157 c -12.35372,10.25677 -21.8232,25.80923 -25.27263,41.50719 -1.44636,6.58221 -1.82568,18.31835 -0.84818,26.24251 l 0.60991,4.94423 -3.7546,1.33114 c -4.52507,1.60428 -4.42571,1.59942 -4.94644,0.24235 z m 155.99036,-0.26507 -3.62123,-1.20033 0.57863,-3.85731 c 0.31825,-2.12157 0.53508,-8.47833 0.48184,-14.12617 -0.0822,-8.71651 -0.40292,-11.30366 -2.122,-17.11468 -3.85706,-13.03789 -9.76082,-23.36064 -18.4723,-32.2989 -5.08844,-5.22085 -5.3485,-5.99472 -4.17643,-12.42732 l 0.52665,-2.89037 4.98365,4.11387 c 14.79116,12.20981 25.39553,31.84734 28.13546,52.10234 1.36109,10.06162 0.12506,28.2516 -1.95192,28.7289 -0.4076,0.0937 -2.37067,-0.36986 -4.36235,-1.03003 z m -138.56617,-6.44289 c -0.93512,-4.51064 -1.26096,-10.97823 -0.77953,-15.47374 0.45021,-4.20403 0.72132,-4.87964 1.76933,-4.4095 0.68072,0.30537 2.60682,0.69641 4.28028,0.86897 l 3.0426,0.31371 0.0796,9.38288 0.0796,9.38286 -3.269,0.82314 c -4.46838,1.12515 -4.79733,1.069 -5.20312,-0.88832 z m 120.46531,0.75636 -2.70583,-0.76286 0.0437,-9.40666 0.0434,-9.40666 2.52212,-0.003 c 1.38717,-0.002 3.21354,-0.37319 4.05859,-0.82544 0.84502,-0.45225 1.69927,-0.65942 1.8983,-0.46039 0.81886,0.81886 1.18828,9.13883 0.67785,15.26655 -0.6069,7.28553 -0.59399,7.27449 -6.53811,5.59862 z M 99.449976,242.6109 c -5.3186,-4.87414 -3.70986,-12.55776 3.125514,-14.92783 2.62471,-0.91008 3.38722,-0.89127 5.8536,0.14432 3.07385,1.29075 5.90428,5.12921 5.90888,8.01325 0.006,2.81215 -2.09975,6.52687 -4.50055,7.94506 -3.565,2.1059 -7.26405,1.68752 -10.387444,-1.17486 z m 8.751214,-0.92221 c 2.46181,-1.27307 3.09703,-2.52833 3.09703,-6.12038 0,-3.02432 -2.85533,-5.69787 -6.08523,-5.69787 -6.553784,0 -8.509634,8.85448 -2.66228,12.05273 2.05165,1.12216 3.11209,1.07814 5.65048,-0.23459 z m 184.20428,1.43711 c -1.27962,-1.07674 -2.7192,-3.26822 -3.19911,-4.86995 -1.87383,-6.25432 4.44498,-12.64133 10.66323,-10.7783 3.75917,1.12627 6.19142,3.86326 6.68174,7.51888 1.06843,7.96576 -8.08723,13.22735 -14.14586,8.12937 z m 7.936,-1.23302 c 6.05559,-2.7591 4.15217,-12.02234 -2.47037,-12.02234 -5.94375,0 -8.51676,7.12595 -3.95806,10.96184 2.62718,2.21061 3.56474,2.36528 6.42843,1.0605 z M 141.69108,228.81006 c -3.05378,-0.99713 -6.05202,-5.06825 -6.05202,-8.21771 0,-9.48793 13.09893,-12.38843 17.17316,-3.80264 3.36384,7.08874 -3.50089,14.5085 -11.12114,12.02035 z m 7.29398,-3.84929 c 1.28016,-1.28017 1.86705,-2.71477 1.86705,-4.56391 0,-6.64446 -8.70257,-8.66753 -11.76981,-2.73611 -3.2351,6.256 4.92868,12.27409 9.90276,7.30002 z m 106.42726,3.7121 c -6.97286,-2.39715 -8.18587,-10.73371 -2.24211,-15.40906 3.89359,-3.06272 10.60679,-1.55966 12.90777,2.89 3.83541,7.41683 -2.81177,15.21912 -10.66566,12.51906 z m 7.40311,-4.15748 c 1.92802,-1.92803 2.23293,-2.71 1.8341,-4.70415 -0.61178,-3.0589 -2.33135,-4.94271 -5.05845,-5.5417 -6.06289,-1.33162 -10.12183,6.27463 -5.70522,10.69123 2.64954,2.64954 6.00185,2.48233 8.92957,-0.44538 z m -153.83551,1.51323 c -0.60755,-0.38434 -2.38824,-0.70403 -3.95711,-0.71044 -2.48018,-0.0115 -2.85242,-0.24408 -2.85242,-1.79162 0,-3.50407 5.73748,-22.88815 7.33308,-24.77481 0.14518,-0.17163 0.88745,0.25185 1.6493,0.94131 0.76185,0.68948 2.4964,1.64096 3.8545,2.1144 1.82916,0.63763 2.34124,1.18242 1.97526,2.1013 -1.93141,4.84936 -4.95239,15.16348 -5.37549,18.35273 -0.55923,4.21588 -0.97511,4.81222 -2.62712,3.76713 z m 182.94053,-1.98408 c -1.64422,-7.45452 -3.54125,-14.17705 -4.88593,-17.314 -1.66038,-3.87351 -1.50734,-5.00424 0.67727,-5.00424 0.75558,0 2.29374,-0.72358 3.41809,-1.60802 1.12434,-0.8844 2.21359,-1.43869 2.42052,-1.23172 1.00378,1.00374 5.66477,15.49286 6.63235,20.61715 l 1.09568,5.80282 h -3.26934 c -1.79814,0 -3.79645,0.2024 -4.44069,0.44947 -0.83496,0.3204 -1.3082,-0.17106 -1.64795,-1.71146 z M 151.6898,212.08795 c -0.55819,-0.67258 -2.34075,-1.5799 -3.96125,-2.01626 l -2.94635,-0.79336 2.00338,-3.20552 c 4.55638,-7.29052 12.96071,-16.51693 15.04521,-16.51693 0.23718,0 0.4311,2.51112 0.4311,5.58022 0,5.51571 -0.0417,5.63251 -3.6131,10.09974 -1.98722,2.48573 -4.13759,5.31947 -4.77861,6.29725 -1.05342,1.60679 -1.26309,1.66015 -2.18038,0.55486 z m 95.5115,-2.93252 c -1.52235,-2.20341 -3.30511,-4.7421 -3.96168,-5.64157 -1.1106,-1.5214 -1.04508,-1.905 0.94024,-5.50375 1.17374,-2.12763 2.36786,-3.87333 2.65362,-3.87936 0.69731,-0.0144 5.15589,5.48894 8.5937,10.60799 l 2.78929,4.15341 -2.85823,0.98954 c -1.57203,0.54425 -3.42766,1.5049 -4.12365,2.13473 -1.15025,1.04101 -1.51726,0.78068 -4.03329,-2.86099 z m -132.48017,-9.63717 c -6.78765,-2.98125 -7.31039,-12.17821 -0.91387,-16.07839 3.19894,-1.95051 5.81679,-1.87936 8.96732,0.24379 3.38416,2.28057 4.63851,4.80632 4.20319,8.46346 -0.65987,5.54356 -7.31079,9.54342 -12.25664,7.37114 z m 7.9026,-4.16781 c 3.74988,-3.99154 1.06193,-10.35848 -4.37307,-10.35848 -5.53034,0 -8.31544,6.38896 -4.5379,10.40994 2.28224,2.42936 6.6038,2.4044 8.91097,-0.0515 z m 157.6836,3.35654 c -1.38603,-0.86859 -3.05318,-2.85268 -3.70869,-4.4137 -1.03566,-2.46638 -1.05446,-3.22889 -0.14432,-5.85359 2.37007,-6.83537 10.05369,-8.44414 14.92783,-3.12551 1.93418,2.11055 2.47259,3.36545 2.47259,5.76301 0,2.39755 -0.53841,3.65242 -2.47259,5.76297 -3.19879,3.49051 -7.36358,4.19256 -11.07477,1.86682 z m 7.80838,-2.01709 c 1.8011,-0.69115 3.65372,-4.72542 3.12936,-6.81456 -1.78091,-7.09575 -12.60344,-6.15529 -12.60344,1.09525 0,4.76838 4.6449,7.57245 9.47408,5.71931 z M 126.23559,183.58634 c -0.74561,-0.82389 -2.35777,-1.91307 -3.58259,-2.42041 -1.22483,-0.50733 -2.22696,-1.09051 -2.22696,-1.29592 0,-0.92793 10.30104,-12.37092 14.2047,-15.7794 4.60411,-4.0201 15.83596,-11.80666 17.03071,-11.80666 0.39156,0 0.71197,2.21215 0.71197,4.91588 v 4.91589 l -4.57107,3.10415 c -4.90919,3.33377 -13.31311,11.26135 -17.58206,16.5855 -2.5885,3.22831 -2.65,3.2558 -3.9847,1.78097 z m 146.01369,-2.39931 c -8.89386,-11.66242 -25.86221,-23.32988 -41.39544,-28.4636 -11.11268,-3.67272 -16.47562,-4.49123 -30.17903,-4.60603 -11.79711,-0.0989 -13.48485,-0.28775 -19.24573,-2.15448 -3.47306,-1.12538 -7.05002,-2.04616 -7.94883,-2.04616 -3.58986,0 0.16675,-1.50058 7.79793,-3.11493 11.31887,-2.39445 29.08509,-2.41765 40.11196,-0.0523 22.54668,4.83628 43.44824,17.18656 56.88788,33.61379 3.53877,4.32544 4.21886,5.56582 3.35231,6.11421 -0.5979,0.37836 -1.31751,0.69319 -1.5992,0.69958 -0.28174,0.006 -1.50829,0.84988 -2.72581,1.87435 l -2.2137,1.86271 -2.84234,-3.72709 z m -64.03747,-14.72517 -5.39407,-0.66888 -1.97239,-4.26892 c -1.08481,-2.3479 -1.81277,-4.4285 -1.61771,-4.62359 0.19521,-0.19521 4.36572,0.05 9.26809,0.54436 8.44558,0.85186 19.58584,3.34142 20.95087,4.68193 0.34522,0.33904 -0.85281,0.84186 -2.66227,1.11739 -1.8095,0.27541 -5.51488,1.26271 -8.23422,2.19378 -4.30195,1.4729 -5.64493,1.60592 -10.3383,1.02393 z m 103.89852,176.89785 c 0,-1.38801 -1.3542,-3.19474 -2.39454,-3.19474 -0.3129,0 -0.21102,1.02688 0.22654,2.28195 0.87731,2.51658 2.168,3.05999 2.168,0.91279 z m 1.90319,-2.92028 c 1.01067,-0.38782 1.06173,-0.61629 0.25241,-1.12932 -0.55802,-0.35372 -1.65551,-0.6484 -2.43887,-0.65481 -1.18009,-0.009 -1.26193,0.18399 -0.47734,1.12935 1.09082,1.31437 1.00196,1.29252 2.66383,0.65478 z M 58.052556,293.59605 c 0,-0.3817 -0.77016,-0.45728 -1.71146,-0.1679 -2.224028,0.68366 -2.210048,0.66517 -1.635388,2.16271 0.461128,1.20168 0.582338,1.20111 1.919548,-0.009 0.78502,-0.71041 1.4273,-1.60399 1.4273,-1.98569 z m -2.04179,-1.4957 1.66147,-0.90421 -1.90164,-0.54129 c -3.103478,-0.88337 -4.563908,-0.76027 -4.563908,0.38469 0,0.995 1.01113,1.75872 2.52213,1.90494 0.34128,0.0331 1.368158,-0.34683 2.281948,-0.84413 z M 326.56271,254.29268 c 0,-1.20097 -2.14138,-1.54492 -2.57546,-0.41367 -0.27714,0.72206 0.0888,1.09295 1.07803,1.09295 0.82358,0 1.49743,-0.30569 1.49743,-0.67928 z m 0.76064,-4.19374 c 0,-1.45594 -0.31124,-1.74904 -1.52129,-1.4326 -1.77278,0.46358 -2.05187,1.74171 -0.38032,1.74171 0.62754,0 1.14097,0.34228 1.14097,0.76064 0,0.41836 0.17105,0.76064 0.38032,0.76064 0.20929,0 0.38032,-0.82369 0.38032,-1.83039 z m 8.2107,-2.3532 0.22395,-3.0426 -3.45661,-0.2205 c -2.70091,-0.1725 -3.45661,0.0354 -3.45661,0.95082 0,0.85956 0.81,1.17143 3.0426,1.17143 2.40787,0 3.04262,0.28203 3.04262,1.35124 0,1.1177 -0.52587,1.30109 -3.04262,1.0611 -2.446,-0.23316 -3.0426,-0.0423 -3.0426,0.97444 0,1.01735 0.63205,1.21888 3.23277,1.03072 3.18218,-0.23028 3.23628,-0.28146 3.45661,-3.27653 z m -8.2107,-2.28195 c 0,-0.62754 -0.51343,-1.14097 -1.14096,-1.14097 -1.97958,0 -1.33807,1.49909 0.95081,2.2219 0.10465,0.0331 0.19003,-0.45337 0.19003,-1.08093 z m 8.25627,-4.51053 c -0.14806,-0.12764 -1.55303,-0.46395 -3.12186,-0.74759 -2.24709,-0.40625 -2.85246,-0.27599 -2.85246,0.61382 0,0.75619 0.94289,1.20758 2.85246,1.36561 2.43139,0.20124 4.04643,-0.43604 3.12186,-1.23184 z m 7.9076,-20.31626 c 3.21747,-0.805 3.17314,-0.67089 1.95904,-5.9307 -0.67264,-2.91412 -1.18949,-3.79059 -2.09181,-3.54738 -0.6591,0.17767 -3.00677,0.73207 -5.21706,1.23202 -3.13293,0.70866 -3.94181,1.18434 -3.66987,2.15822 0.19175,0.68707 0.58573,2.44723 0.87535,3.91151 0.84393,4.26681 0.33395,4.13054 8.14435,2.17633 z m -10.83929,-13.30817 c 5.22948,-1.11816 9.74998,-2.23941 10.04558,-2.49162 0.2956,-0.25213 0.0115,-2.76684 -0.63256,-5.58801 -0.86397,-3.78757 -1.49846,-5.12941 -2.42545,-5.12941 -0.69049,0 -5.45708,0.92078 -10.59241,2.04619 -7.52095,1.64821 -9.27252,2.27698 -9.00544,3.23277 0.18227,0.65263 0.75268,3.15478 1.2674,5.56033 0.5147,2.40557 1.13809,4.38029 1.38527,4.38828 0.24725,0.009 4.72813,-0.90036 9.95761,-2.01853 z m -4.18359,-1.79926 c 0.25846,-0.41835 0.62107,-0.76064 0.80555,-0.76064 0.18457,0 0.33541,0.34229 0.33541,0.76064 0,0.41836 -0.36249,0.76065 -0.80554,0.76065 -0.44303,0 -0.59399,-0.34229 -0.33542,-0.76065 z m 1.71301,-1.1537 c -0.30764,-1.60937 -0.002,-1.99495 2.00456,-2.52405 1.9901,-0.5249 2.46233,-0.38222 2.96132,0.89493 0.69326,1.77431 0.15209,2.41113 -2.59822,3.05752 -1.70286,0.40024 -2.05918,0.18543 -2.36766,-1.4284 z m 5.88991,-1.13961 c -0.62771,-1.97773 -0.4881,-2.13421 2.42326,-2.7165 1.96226,-0.39245 2.37746,-0.19894 2.7668,1.29 0.5454,2.08563 0.71358,1.89758 -2.26818,2.53596 -2.03006,0.43462 -2.48685,0.26104 -2.92188,-1.10946 z m -6.87186,-3.1245 c -0.64918,-2.04535 0.18974,-2.94937 2.73677,-2.94937 1.48141,0 2.23705,0.38544 2.23705,1.14099 0,0.62754 0.0172,1.3977 0.0377,1.71146 0.0201,0.31377 -0.99736,0.78218 -2.26247,1.04092 -1.82352,0.37296 -2.39315,0.17738 -2.74907,-0.944 z m 6.26525,-0.39019 c -0.96045,-0.96044 -0.55391,-3.14816 0.67241,-3.61875 2.65817,-1.02005 4.12138,-0.50883 4.12138,1.43989 0,1.13453 -0.43517,1.90164 -1.07875,1.90164 -0.59332,0 -1.5525,0.18169 -2.13154,0.40398 -0.57901,0.22223 -1.29161,0.16502 -1.5835,-0.12678 z m 19.24617,-31.81752 c 0,-2.04949 -2.784,-2.86182 -5.31768,-1.55161 -3.34079,1.72759 -2.80775,2.66584 1.51444,2.66584 2.83296,0 3.80324,-0.28433 3.80324,-1.11423 z m -255.742494,-3.36013 2.373124,-2.95302 -5.852824,-4.62529 -5.85285,-4.62526 -1.72779,2.06358 c -3.50839,4.19026 -3.53001,4.10942 2.33839,8.7513 3.00436,2.37645 5.6619,4.32549 5.90563,4.33127 0.24379,0.006 1.51111,-1.3184 2.81632,-2.94258 z m -9.95298,-3.70265 c -2.92332,-2.21968 -3.25097,-3.61309 -0.84965,-3.61309 1.02947,0 1.43938,0.51032 1.39484,1.73653 -0.0414,1.14139 0.19406,1.47945 0.68702,0.98641 0.49305,-0.49305 1.2967,-0.48724 2.34503,0.0172 1.55587,0.74822 1.55869,0.73796 0.11442,-0.41876 -1.01478,-0.81285 -1.23422,-1.43199 -0.69768,-1.96854 0.9382,-0.93816 3.32954,-0.16875 3.29378,1.05998 -0.0259,0.86543 -2.58552,4.29238 -3.2069,4.29238 -0.17939,0 -1.56576,-0.9413 -3.08095,-2.09178 z m 0.20124,-4.40599 c -0.62302,-0.7507 -0.71033,-1.43656 -0.24235,-1.90448 0.97864,-0.97865 3.72418,1.03439 3.00278,2.20166 -0.73727,1.19294 -1.60084,1.09997 -2.76037,-0.29718 z m 258.992984,8.65763 c 2.01525,-0.91821 2.21649,-1.55567 1.26073,-3.9933 -0.50601,-1.29043 -0.75547,-1.15263 -2.22851,1.23078 -2.40526,3.89179 -2.28213,4.24327 0.96778,2.76252 z m -29.19751,-15.16159 c 5.61935,-6.31424 10.34445,-11.83101 10.50022,-12.25948 0.28777,-0.79152 -25.64519,-27.22377 -26.70954,-27.22377 -0.7444,0 -23.52859,18.77008 -24.53217,20.21009 -0.58607,0.84094 2.56724,4.40991 14.06476,15.91878 8.1511,8.15916 15.1891,14.83483 15.63997,14.83483 0.45087,0 5.41741,-5.16621 11.03676,-11.48045 z m -14.33948,6.70402 -3.21032,-3.27106 3.43482,-3.37103 3.43482,-3.37103 3.16366,3.16366 3.16366,3.16366 -2.93743,3.2803 c -1.61561,1.80415 -3.14029,3.36945 -3.38819,3.47843 -0.24782,0.10896 -1.89537,-1.27384 -3.66102,-3.07293 z m -7.39092,-7.39402 -2.97101,-3.0426 2.97101,-3.0426 c 1.63407,-1.67345 3.34786,-3.04262 3.80841,-3.04262 1.03247,0 5.69973,4.73048 5.69973,5.77689 0,0.75797 -5.42362,6.39356 -6.15307,6.39356 -0.2113,0 -1.721,-1.36918 -3.35507,-3.04263 z m 14.73754,0.17077 -3.26676,-3.04723 2.87287,-3.50595 c 1.58007,-1.92828 3.12278,-3.50597 3.42824,-3.50597 0.30543,0 1.89114,1.36797 3.5238,3.03995 l 2.96842,3.03996 -2.6218,2.85509 c -1.44196,1.5703 -2.85044,3.15124 -3.12988,3.51322 -0.27944,0.36198 -1.97816,-0.71312 -3.77489,-2.38907 z m -21.89263,-7.32443 c -1.81016,-1.84442 -3.07535,-3.7027 -2.81157,-4.12951 0.26391,-0.42684 1.78807,-1.81237 3.38727,-3.07897 l 2.90765,-2.30288 3.16852,3.22846 3.16852,3.22849 -3.2646,3.20397 -3.2646,3.20393 z m 14.15548,-0.29453 -2.81651,-2.88436 3.43318,-3.36942 3.43318,-3.36945 3.19877,3.19877 3.19873,3.19873 -2.9832,3.05505 c -1.64074,1.68029 -3.35769,3.05504 -3.8154,3.05504 -0.45775,0 -2.09966,-1.29796 -3.64875,-2.88436 z m 14.45238,-0.76064 -2.81652,-2.88439 3.42077,-3.3572 3.42073,-3.3572 3.02167,2.95057 3.02167,2.95057 -2.82945,3.21935 c -1.55622,1.77065 -3.18787,3.2516 -3.62592,3.29102 -0.43802,0.0394 -2.06386,-1.22632 -3.61295,-2.81272 z m -36.23933,-6.45986 -3.33954,-3.1151 3.26583,-2.89816 c 1.79621,-1.59399 3.49462,-2.89817 3.77429,-2.89817 1.08631,0 6.2898,5.9909 5.83819,6.72165 -0.26306,0.42557 -1.76543,1.79325 -3.33872,3.03932 l -2.8605,2.26557 z m 14.94094,0.37449 c -1.54917,-1.58649 -2.81666,-3.10389 -2.81666,-3.37201 0,-0.26822 1.55604,-1.76254 3.45788,-3.32097 l 3.45788,-2.83345 3.01117,2.94034 3.01118,2.94034 -3.20448,3.26514 c -1.76249,1.79581 -3.40608,3.26512 -3.6524,3.26512 -0.24638,0 -1.7154,-1.29802 -3.26457,-2.88451 z m 14.45252,-0.7605 -2.81651,-2.88439 3.42076,-3.3572 3.42074,-3.3572 3.02166,2.95057 3.02167,2.95057 -2.82945,3.21935 c -1.55621,1.77066 -3.18787,3.25161 -3.62592,3.29102 -0.43802,0.0394 -2.06386,-1.22632 -3.61295,-2.81272 z m -21.67333,-6.46951 -3.12916,-3.1969 2.81582,-2.33014 c 4.58542,-3.79453 4.60232,-3.79594 7.82227,-0.65174 l 2.96748,2.89765 -1.70499,1.82795 c -0.93774,1.00538 -2.59086,2.46293 -3.67364,3.23901 l -1.96865,1.41103 z m 14.78046,-0.42451 -2.86355,-2.93255 3.72714,-3.12054 3.72717,-3.12053 2.97542,3.05648 2.97544,3.05649 -3.20331,2.9966 c -1.76183,1.64809 -3.48939,2.99657 -3.83906,2.99657 -0.34965,0 -1.92432,-1.31964 -3.49925,-2.93252 z m -6.83506,-6.8348 -2.85271,-2.92142 3.39685,-2.78346 c 1.86825,-1.53091 3.69997,-2.78345 4.07043,-2.78345 0.37046,0 1.85316,1.21994 3.2949,2.71101 l 2.62134,2.711 -3.20331,2.99387 c -1.76182,1.64666 -3.48938,2.9939 -3.83906,2.9939 -0.34964,0 -1.91943,-1.31464 -3.48844,-2.92145 z m -198.732664,25.97002 -2.74169,-2.43329 -1.81984,2.16276 c -1.0009,1.18952 -1.81981,2.43071 -1.81981,2.75822 0,0.32748 1.11244,1.54368 2.4721,2.70267 l 2.47213,2.10721 2.089394,-2.43214 2.0894,-2.43217 z M 131.0752,120.71697 c 0,-0.62753 -0.30425,-1.14099 -0.67612,-1.14099 -0.37189,0 -0.62859,-0.56216 -0.57049,-1.24926 0.0581,-0.6871 -0.32222,-1.40022 -0.84517,-1.58468 -1.14297,-0.40323 -1.2055,0.54373 -0.209,3.16475 0.80664,2.1216 2.30078,2.64773 2.30078,0.81018 z m 4.08309,-0.59309 c 1.10347,-0.8069 1.19147,-1.34106 0.51429,-3.12221 -0.70636,-1.85785 -1.09842,-2.07812 -2.89578,-1.62702 -2.52934,0.63481 -2.75338,0.83295 -2.1132,1.86878 0.74394,1.20369 1.93292,0.98244 1.93292,-0.35971 0,-0.96002 0.1883,-0.99501 1.04566,-0.19406 0.57512,0.53723 0.85459,1.47474 0.62106,2.08333 -0.26937,0.70168 -0.53067,0.78836 -0.7145,0.23689 -0.15955,-0.4783 -0.75958,-0.68937 -1.33366,-0.46907 -1.21773,0.46729 -0.64752,2.5566 0.69776,2.5566 0.50282,0 1.51327,-0.43805 2.24545,-0.97342 z m 6.56605,-3.37695 c 0,-0.5358 -0.30425,-0.97419 -0.67615,-0.97419 -0.37187,0 -0.6286,-0.59902 -0.57047,-1.33114 0.0581,-0.73215 -0.4078,-1.33117 -1.03533,-1.33117 -0.63283,0 -1.01499,0.50817 -0.85808,1.141 0.84663,3.41475 0.74759,3.91061 -0.32055,1.60497 -0.8364,-1.80541 -1.43475,-2.33848 -1.99547,-1.77776 -0.46542,0.46542 -0.53082,1.2269 -0.15611,1.81798 0.6225,0.98209 0.74897,1.36055 0.95323,2.85265 0.14461,1.05736 4.65899,-0.88274 4.65899,-2.00234 z m 8.36718,-2.87583 c 0,-0.62753 -0.30428,-1.14099 -0.67615,-1.14099 -0.37187,0 -0.62859,-0.56216 -0.57049,-1.24926 0.0581,-0.6871 -0.32222,-1.40022 -0.84517,-1.5847 -1.14297,-0.40321 -1.2055,0.54375 -0.209,3.16478 0.80661,2.12159 2.30078,2.64773 2.30078,0.81017 z m 3.0426,0.11356 c 0,-1.52962 -1.90902,-5.05773 -2.73671,-5.05773 -1.48638,0 -1.33263,1.29072 0.26449,2.22101 0.73213,0.42643 0.91402,0.78574 0.40421,0.79844 -1.29094,0.0322 -0.29671,2.3051 1.00832,2.3051 0.58277,0 1.0596,-0.12017 1.0596,-0.26679 z m 2.28196,-1.20496 c 0,-0.39113 -0.33384,-1.58916 -0.74184,-2.66227 -0.80662,-2.1216 -2.30076,-2.64773 -2.30076,-0.81018 0,0.62753 0.36249,1.14096 0.80552,1.14096 0.44305,0 0.59401,0.34232 0.33544,0.76067 -0.55465,0.89746 0.16473,2.28196 1.18587,2.28196 0.39366,0 0.71577,-0.32003 0.71577,-0.71114 z m 5.32455,-2.87858 c 0,-0.5358 -0.30425,-0.97419 -0.67612,-0.97419 -0.3719,0 -0.6286,-0.59902 -0.5705,-1.33114 0.0581,-0.73215 -0.4078,-1.33117 -1.03534,-1.33117 -0.63282,0 -1.01498,0.50817 -0.85807,1.141 0.84663,3.41475 0.74762,3.91061 -0.32052,1.60497 -0.83643,-1.80541 -1.43478,-2.33848 -1.9955,-1.77776 -0.46542,0.46542 -0.53082,1.2269 -0.15611,1.81798 0.6225,0.98209 0.74897,1.36055 0.95323,2.85265 0.14461,1.05736 4.65899,-0.88274 4.65899,-2.00234 z m 8.36718,-2.87583 c 0,-0.62753 -0.30425,-1.14099 -0.67615,-1.14099 -0.37187,0 -0.6286,-0.56216 -0.57047,-1.24926 0.0581,-0.6871 -0.32221,-1.40022 -0.84519,-1.5847 -1.14295,-0.40321 -1.2055,0.54375 -0.209,3.16478 0.80661,2.12159 2.30078,2.64773 2.30078,0.81017 z m 3.0426,0.11356 c 0,-1.52962 -1.90902,-5.05773 -2.73668,-5.05773 -1.28086,0 -1.27562,-0.0661 -0.23143,2.9291 0.45929,1.31751 1.31501,2.39545 1.90163,2.39545 0.58663,0 1.06657,-0.12017 1.06657,-0.26679 z m 2.28196,-1.20496 c 0,-0.39113 -0.33381,-1.58916 -0.74182,-2.66227 -0.80664,-2.1216 -2.30078,-2.64773 -2.30078,-0.81018 0,0.62753 0.36249,1.14096 0.80555,1.14096 0.44305,0 0.59398,0.34232 0.33541,0.76067 -0.55465,0.89746 0.16473,2.28196 1.18587,2.28196 0.39369,0 0.71577,-0.32001 0.71577,-0.71114 z m 5.32458,-2.87858 c 0,-0.5358 -0.30428,-0.97419 -0.67615,-0.97419 -0.37187,0 -0.6286,-0.59902 -0.5705,-1.33114 0.0581,-0.73215 -0.40777,-1.33117 -1.03531,-1.33117 -0.63285,0 -1.01501,0.50817 -0.8581,1.141 0.77404,3.12188 0.74834,3.98674 -0.0621,2.09178 -0.4921,-1.15048 -1.34206,-2.09178 -1.88884,-2.09178 -1.09525,0 -1.31374,0.94814 -0.42364,1.83824 0.31376,0.31377 0.61327,0.88426 0.66556,1.26774 0.0523,0.38352 0.13771,1.00984 0.19004,1.39186 0.14489,1.05736 4.65898,-0.88274 4.65898,-2.00234 z m 24.04378,-17.49848 c -0.21878,-0.21878 -0.92584,-0.1955 -1.57099,0.052 -1.0421,0.3999 -1.02453,0.76395 0.15725,3.26233 l 1.33036,2.8122 0.24063,-2.86435 c 0.13225,-1.57536 0.0615,-3.04343 -0.15725,-3.2623 z m 84.72943,298.72614 c 0,-0.41835 0.53367,-0.76064 1.1859,-0.76064 0.6522,0 0.9743,0.34229 0.71573,0.76064 -0.25845,0.41836 -0.79221,0.76067 -1.18587,0.76067 -0.39366,0 -0.71576,-0.34231 -0.71576,-0.76067 z m -19.39661,-1.52128 c -0.25846,-0.41836 0.0635,-0.76067 0.71573,-0.76067 0.65223,0 1.18587,0.34231 1.18587,0.76067 0,0.41835 -0.32207,0.76064 -0.71573,0.76064 -0.39369,0 -0.92733,-0.34229 -1.18587,-0.76064 z m 17.11465,-2.96124 c 0,-0.37359 0.49601,-0.8696 1.10224,-1.10224 0.73672,-0.2826 0.96197,-0.0575 0.67928,0.67928 -0.46168,1.20315 -1.78152,1.51649 -1.78152,0.42296 z m -13.96847,-1.22672 c -0.23977,-0.62515 -0.12477,-1.13663 0.25558,-1.13663 1.03111,0 1.67138,1.35176 0.8738,1.84472 -0.38136,0.23574 -0.88964,-0.0831 -1.12953,-0.70809 z m -116.8036,-1.51695 c -0.0331,-0.41835 -1.25808,-0.8234 -2.72233,-0.9001 -5.10267,-0.26737 -4.89039,-0.0621 -5.16776,-4.99495 -0.0765,-1.35965 -0.48531,-2.76111 -0.90858,-3.11435 -0.45441,-0.37926 -0.24724,-0.47563 0.50598,-0.23546 1.58839,0.50665 3.47243,-1.42926 1.989,-2.04374 -0.54042,-0.22395 0.38662,-0.2228 2.06005,0.002 4.11097,0.55296 5.61368,1.46842 6.07622,3.70176 1.109,5.35442 1.1773,6.03494 0.50449,5.02637 -0.52674,-0.78962 -0.8807,-0.51754 -1.48434,1.14096 -0.43598,1.19783 -0.81969,1.83557 -0.85273,1.41721 z m 121.64425,-0.80555 c 0,-0.65222 0.34228,-0.9743 0.76064,-0.71576 0.41839,0.25845 0.76067,0.79221 0.76067,1.1859 0,0.39366 -0.34228,0.71573 -0.76067,0.71573 -0.41836,0 -0.76064,-0.53364 -0.76064,-1.18587 z m 5.32455,0.42523 c 0,-0.41835 0.3625,-0.76064 0.80555,-0.76064 0.44308,0 0.59401,0.34229 0.33544,0.76064 -0.25845,0.41836 -0.62106,0.76064 -0.80554,0.76064 -0.18457,0 -0.33545,-0.34228 -0.33545,-0.76064 z M 154.08494,364.00227 c -1.32732,-0.53557 -1.19067,-3.2552 0.19003,-3.78507 0.62756,-0.24092 1.14099,-0.87805 1.14099,-1.41606 0,-1.23087 1.74725,-1.94154 2.94839,-1.19921 0.49983,0.30891 1.10454,1.76804 1.34382,3.24249 0.38129,2.34966 0.2136,2.7401 -1.35811,3.16084 -2.03624,0.54508 -2.90848,0.54448 -4.26524,-0.003 z m -8.55733,-2.72515 c -1.04592,-0.48031 -1.99791,-0.93081 -2.11556,-1.00113 -0.51524,-0.30787 2.60162,-4.91488 3.58173,-5.29416 1.60926,-0.62271 3.01247,1.18494 3.25971,4.19917 0.1794,2.18751 -0.0526,2.68924 -1.30296,2.81562 -0.83671,0.0845 -2.37703,-0.23919 -3.42292,-0.7195 z m 6.14525,-0.2573 c 0.0365,-0.88611 0.21677,-1.06636 0.45956,-0.45956 0.21964,0.54911 0.19262,1.20516 -0.0601,1.45792 -0.2527,0.25271 -0.43256,-0.19635 -0.39952,-0.99836 z m 168.3359,-45.65738 c -0.3295,-1.31288 -0.14145,-2.20884 0.556,-2.65063 0.83758,-0.53042 0.78068,-0.66974 -0.27742,-0.679 -0.9451,-0.009 -1.33454,0.59499 -1.34279,2.08014 -0.009,1.63004 -0.1745,1.83991 -0.74902,0.95082 -1.32933,-2.057 -0.84385,-3.75339 1.22264,-4.27205 1.09079,-0.27369 2.20324,-0.16531 2.4721,0.24063 0.2688,0.40614 1.17345,1.12664 2.01016,1.60112 1.41583,0.80287 1.37527,0.86428 -0.58499,0.88581 -1.86331,0.0201 -2.05121,0.24236 -1.629,1.92475 0.29033,1.15675 0.15265,1.90164 -0.35135,1.90164 -0.45573,0 -1.05261,-0.89249 -1.32639,-1.98328 z m 3.18539,0.78799 c -0.6574,-0.65744 -1.1953,-1.331 -1.1953,-1.49679 0,-0.67696 3.36666,1.00199 3.6373,1.81392 0.42313,1.2693 -1.04638,1.07846 -2.442,-0.31713 z m -7.58466,-3.51555 c -0.32987,-1.12671 -0.34346,-2.46319 -0.0302,-2.96998 0.36236,-0.58631 0.25012,-0.72402 -0.30873,-0.37865 -0.48299,0.2985 -0.87817,1.05618 -0.87817,1.68371 0,1.80188 -1.51519,0.39151 -1.57479,-1.4658 -0.0515,-1.60227 -0.0776,-1.60787 -0.67899,-0.14518 -0.66137,1.60845 -1.04359,1.12314 -1.79705,-2.28198 -0.29355,-1.32666 -0.34792,-1.29659 -0.42485,0.23516 -0.11471,2.28619 -1.60954,1.37165 -1.60954,-0.98482 0,-1.90124 1.5297,-2.64497 4.14285,-2.01428 1.467,0.35408 1.467,0.36264 0,0.93673 -1.13749,0.44515 -0.86365,0.59448 1.1817,0.64453 2.00987,0.0492 2.38269,0.2458 1.52131,0.80244 -0.91793,0.59324 -0.79764,0.73966 0.61538,0.74903 0.96599,0.006 1.55995,0.32946 1.31986,0.71789 -0.24005,0.38846 0.33875,0.85845 1.28627,1.04443 l 1.72273,0.33814 -1.6684,0.55434 c -1.03442,0.3437 -1.77315,1.31984 -1.94404,2.5687 l -0.2757,2.01433 -0.59971,-2.04857 z m 10.46937,-5.5536 c -0.23977,-0.62512 -0.71893,-0.96183 -1.06455,-0.74822 -0.34559,0.2136 -0.84683,0.0348 -1.11382,-0.39711 -0.26708,-0.43202 -0.81047,-0.58462 -1.20772,-0.3391 -0.39723,0.24552 -1.24808,-0.69021 -1.89077,-2.07936 -0.73528,-1.58928 -1.03425,-1.87507 -0.80635,-0.77085 0.29879,1.44757 0.17278,1.59779 -0.71893,0.8577 -0.59462,-0.49351 -1.10517,-1.62553 -1.13458,-2.5156 -0.052,-1.57548 -0.0702,-1.57803 -0.67903,-0.0969 -0.64547,1.56981 -0.65504,1.55975 -1.80949,-1.90164 -0.21878,-0.65588 -0.40605,-0.34867 -0.44058,0.72261 -0.0745,2.30938 -1.3439,1.2055 -1.70577,-1.48325 -0.22654,-1.68331 0.0497,-1.92627 2.40636,-2.11622 2.00179,-0.16128 2.37921,-0.023 1.52131,0.55883 -0.93328,0.63265 -0.82668,0.77556 0.58562,0.78508 0.94961,0.006 3.08213,0.86738 4.73893,1.91327 1.65681,1.04589 3.36149,1.90164 3.78815,1.90164 0.4267,0 0.77577,0.30238 0.77577,0.67192 0,0.36957 0.77015,0.9135 1.71149,1.20873 l 1.71145,0.53674 -1.90163,0.54485 c -1.40376,0.40223 -1.83934,0.98193 -1.66365,2.21425 0.27053,1.89767 -0.44561,2.24384 -1.10221,0.53275 z m 0.12362,-4.04102 c -0.2343,-0.23431 -0.84795,-4.9e-4 -1.36394,0.51935 -0.74564,0.75124 -0.65827,0.83861 0.4258,0.4258 0.75018,-0.28577 1.17233,-0.71096 0.93814,-0.94515 z m -2.32818,-1.55424 c -0.42862,-0.45115 -1.87553,0.69231 -1.87553,1.48219 0,0.41016 0.47893,0.3044 1.06426,-0.23517 0.58536,-0.53944 0.95041,-1.10065 0.81127,-1.24713 z m 5.30707,5.6531 c -0.81141,-0.59335 -1.24845,-1.30566 -0.97117,-1.58295 0.64107,-0.64105 3.67706,0.95067 3.67706,1.92783 0,1.03703 -0.98825,0.91105 -2.70589,-0.34488 z m 1.2455,-10.14082 c -0.61354,-1.05343 -0.7852,-1.0931 -0.82263,-0.19003 -0.0365,0.87575 -0.30692,0.79775 -1.16411,-0.33556 -0.61425,-0.81208 -1.11678,-1.19803 -1.11678,-0.85767 0,0.34036 -0.51346,0.19262 -1.14099,-0.32809 -0.62754,-0.52079 -1.15238,-0.64829 -1.16629,-0.28318 -0.0144,0.365 -0.69849,-0.1446 -1.52129,-1.1321 -0.90775,-1.08962 -1.50553,-1.38873 -1.52019,-0.76065 -0.0144,0.66983 -0.42986,0.49822 -1.17374,-0.48623 -0.63222,-0.83671 -1.39151,-1.38855 -1.68728,-1.22632 -0.29574,0.16215 -0.94924,-0.51225 -1.45217,-1.49889 -0.71215,-1.39706 -0.71215,-1.92248 0,-2.37513 1.4576,-0.92649 3.92329,-0.69783 5.52312,0.51225 0.8121,0.61422 2.16112,1.14137 2.99784,1.17141 1.31173,0.0472 1.24256,0.20613 -0.50228,1.15373 -1.46557,0.796 -1.91305,1.52174 -1.62274,2.63183 0.22051,0.84301 0.57196,1.53276 0.78114,1.53276 0.2093,0 0.20096,-0.68601 -0.0172,-1.52448 -0.61698,-2.35932 2.72375,-2.84164 6.47768,-0.93521 2.91392,1.47983 2.97814,1.58839 1.43018,2.41682 -1.31924,0.70602 -1.47247,1.14447 -0.82366,2.35676 1.01133,1.88968 -0.38207,2.03891 -1.47747,0.15812 z m 0.29329,-3.87946 c -0.42862,-0.45116 -1.87553,0.69231 -1.87553,1.48222 0,0.41016 0.47893,0.30436 1.06426,-0.23517 0.58536,-0.53945 0.95042,-1.10066 0.81127,-1.24716 z m -1.51309,-1.46304 c -0.42511,-0.61132 -2.64439,0.90836 -2.64439,1.81076 0,0.80696 0.33251,0.74222 1.39453,-0.27139 0.76699,-0.73212 1.32941,-1.42477 1.24986,-1.53922 z m -7.60654,-3.80324 c -0.42508,-0.61134 -2.64436,0.90833 -2.64436,1.81076 0,0.80693 0.33251,0.74219 1.39453,-0.27168 0.76699,-0.73212 1.32941,-1.42477 1.24983,-1.53919 z m 11.99819,9.21246 c -0.52294,-0.21101 -0.95082,-0.69745 -0.95082,-1.08093 0,-1.10313 2.00105,-0.8113 3.0426,0.44371 0.76389,0.92043 0.74515,1.12938 -0.0969,1.08091 -0.57418,-0.0331 -1.47181,-0.23258 -1.99476,-0.44369 z m 2.27615,-11.06266 c -0.52614,-0.63481 -1.82079,-1.05934 -2.87703,-0.9434 -2.54415,0.27915 -4.83732,-2.86401 -3.37494,-4.62607 0.80417,-0.96895 0.74839,-1.07406 -0.34694,-0.65375 -0.9549,0.36644 -1.18478,1.03448 -0.85661,2.48952 l 0.44851,1.98869 -1.54437,-1.80987 c -1.28045,-1.50058 -1.37992,-2.02054 -0.58211,-3.04262 0.85284,-1.0925 0.81268,-1.11547 -0.35289,-0.20211 -1.00605,0.78844 -1.13384,1.36946 -0.5437,2.47213 0.99606,1.86116 -0.4227,1.96526 -1.50315,0.1104 -0.5257,-0.90264 -0.78275,-0.99509 -0.79845,-0.28721 -0.0172,0.80541 -0.26506,0.84319 -1.08191,0.16531 -1.67089,-1.38674 -1.98141,-3.70943 -0.5686,-4.25328 1.71448,-0.65996 14.60665,2.73108 14.01606,3.6867 -0.2668,0.43163 0.023,0.56816 0.67678,0.31767 0.62951,-0.24149 1.57392,-0.17393 2.09868,0.15036 0.64823,0.40062 0.31132,0.75101 -1.0509,1.0929 -1.10275,0.27685 -1.81952,0.80336 -1.59281,1.17017 0.22683,0.36681 1.06852,0.49532 1.8707,0.28548 0.80222,-0.20987 2.08546,0.0115 2.85171,0.49258 1.19144,0.74745 1.03951,0.83272 -1.0494,0.5889 -1.7118,-0.19981 -2.5083,0.0509 -2.66228,0.83826 -0.19175,0.98006 -0.34177,0.97612 -1.17635,-0.0308 z m -4.18118,-3.07615 c -0.17623,-0.52294 0.2231,-1.39755 0.88746,-1.94358 1.02783,-0.8449 0.95703,-0.8715 -0.47543,-0.17853 -1.03482,0.50061 -1.51619,1.24923 -1.24975,1.94358 0.52338,1.36391 1.29227,1.52778 0.83772,0.17853 z m -7.05875,-5.02039 c -0.42859,-0.45118 -1.8755,0.69231 -1.8755,1.48219 0,0.41016 0.4789,0.30439 1.06423,-0.23517 0.58536,-0.53944 0.95041,-1.10066 0.81127,-1.24713 z m 28.04608,0.28404 c -2.19094,-1.53459 -2.77431,-4.44555 -1.50145,-7.49197 0.58435,-1.39855 1.08298,-4.0278 1.10802,-5.84276 0.0288,-2.08111 0.62437,-4.08282 1.6127,-5.41962 0.86193,-1.16583 1.56717,-2.83371 1.56717,-3.70639 0,-2.20844 3.33702,-5.32079 5.70488,-5.32079 2.33752,0 5.7049,3.10254 5.7049,5.25619 0,0.83718 0.88608,2.82092 1.96902,4.40833 2.48864,3.64785 2.16895,7.74487 -0.85013,10.89614 -1.12516,1.1744 -1.85147,2.4496 -1.61403,2.83377 0.8673,1.40336 -1.86904,4.09453 -3.95619,3.8909 -1.10782,-0.1081 -2.76186,0.21216 -3.67568,0.71148 -2.21836,1.21229 -4.12776,1.14458 -6.06921,-0.21533 z M 48.279088,258.95341 c -1.10917,-1.15723 -2.95874,-2.51942 -4.11019,-3.0271 -3.58593,-1.58105 -5.03859,-4.96136 -4.95439,-11.52865 0.0771,-6.01267 0.67664,-7.67775 2.7673,-7.68589 0.68092,-0.002 1.82111,-1.0295 2.53377,-2.28196 2.64615,-4.65024 9.57867,-1.9457 9.9869,3.89613 0.0989,1.41584 0.785428,3.48353 1.525488,4.59485 0.84467,1.26841 1.33076,3.39218 1.30566,5.7049 -0.023,2.02635 0.16445,4.93432 0.41402,6.46219 0.90965,5.56662 -5.377888,8.13348 -9.468558,3.86553 z M 66.815756,229.9253 c 0.36436,-0.95798 0.26449,-1.00662 -0.50311,-0.24466 -0.52683,0.52295 -1.81358,0.95082 -2.8595,0.95082 -1.45766,0 -1.69274,-0.209 -1.00693,-0.8947 0.61753,-0.61753 0.65335,-1.18544 0.11557,-1.83338 -1.18892,-1.43254 7.79539,-1.0147 9.59229,0.44612 0.80544,0.65479 1.16006,0.73581 0.83223,0.19004 -0.31417,-0.52298 -0.22884,-0.95082 0.18946,-0.95082 1.27226,0 1.83813,1.59847 0.89861,2.5384 -0.48632,0.48649 -2.42079,0.90907 -4.29879,0.93908 -2.80275,0.0448 -3.33311,-0.15955 -2.95986,-1.14096 z m -6.67142,-1.31898 c 0.52295,-0.21102 1.37866,-0.21102 1.90164,0 0.52294,0.21102 0.0952,0.38366 -0.95082,0.38366 -1.04592,0 -1.47376,-0.17279 -0.95082,-0.38366 z M 351.73658,206.13086 c -2.25418,-10.16199 -4.28395,-18.98975 -4.51061,-19.61729 -0.22654,-0.62753 2.44425,1.42621 5.93536,4.56391 3.49108,3.13767 7.69649,6.90308 9.34537,8.36756 l 2.99789,2.66271 -1.97595,4.46797 c -2.33184,5.27264 -2.24688,4.7858 -0.83499,4.7858 0.62753,0 1.15137,-0.54195 1.16411,-1.20436 0.0201,-1.04885 0.10522,-1.05704 0.65801,-0.0632 1.09246,1.96335 1.66537,5.32455 0.90755,5.32455 -0.39723,0 -0.87055,-0.77016 -1.05188,-1.71146 l -0.32963,-1.71146 -0.1035,1.71146 c -0.0722,1.18955 -0.58314,1.71146 -1.67615,1.71146 -1.25513,0 -1.48302,-0.34548 -1.12901,-1.71146 0.38909,-1.50128 -0.51553,0.32932 -4.33783,8.778 -0.88584,1.9581 -1.27726,0.69274 -5.05865,-16.35401 z m 7.85226,0.4586 c 1.74466,-0.6695 1.55538,-4.62086 -0.26823,-5.59675 -2.18243,-1.16798 -2.93019,-0.9818 -4.27012,1.0632 -2.15003,3.28136 0.61175,6.04029 4.53821,4.53355 z M 68.183866,222.74183 c -4.20449,-0.76728 -7.24433,-1.99892 -4.93354,-1.99892 0.48807,0 0.88743,-0.29485 0.88743,-0.65519 0,-0.36034 -0.77016,-0.57861 -1.71146,-0.48503 -0.94131,0.0937 -1.10739,0.023 -0.36906,-0.15984 0.73834,-0.18141 1.12335,-0.68452 0.85558,-1.11779 -0.30762,-0.49771 0.086,-0.60595 1.06891,-0.29396 1.97159,0.62575 4.39513,1.1177 7.70676,1.56438 1.4336,0.19348 2.86876,0.77588 3.18928,1.29448 0.5661,0.91594 -0.55489,2.9895 -1.51516,2.80269 -0.26248,-0.0512 -2.59297,-0.47896 -5.17874,-0.95082 z m 3.5604,-6.67464 c -1.04589,-0.42681 -2.84467,-0.90252 -3.99724,-1.05713 -2.33931,-0.31377 -5.37587,-1.81297 -3.74819,-1.85055 0.65324,-0.0144 0.83398,-0.55275 0.51924,-1.54442 -0.27686,-0.87271 -0.13656,-1.52132 0.32906,-1.52132 0.44656,0 0.81193,0.31202 0.81193,0.69334 0,0.38136 0.59901,0.59683 1.33114,0.47885 0.73212,-0.11787 1.67342,-0.0115 2.09178,0.23545 0.41836,0.24753 1.44524,0.57231 2.28195,0.72189 0.83672,0.1495 1.97656,0.35471 2.53297,0.45585 1.56274,0.28404 2.43444,2.17503 1.51398,3.28414 -0.94073,1.13349 -1.13041,1.13887 -3.66662,0.10379 z m -9.88847,-4.4521 c 0,-0.41836 0.3221,-0.76068 0.71577,-0.76068 0.39366,0 0.9273,0.34232 1.18586,0.76068 0.25846,0.41835 -0.0635,0.76064 -0.71576,0.76064 -0.65223,0 -1.18587,-0.34229 -1.18587,-0.76064 z m 10.07864,-3.01219 c -1.77801,-0.81256 -3.23277,-1.28103 -3.23277,-1.04109 0,0.24006 -0.45935,0.0552 -1.02079,-0.41091 -0.56145,-0.46596 -1.24605,-0.62195 -1.52132,-0.34668 -0.27513,0.27542 -0.50049,0.1012 -0.50049,-0.38693 0,-0.48808 0.34229,-0.88743 0.76064,-0.88743 0.41836,0 0.76064,-0.31026 0.76064,-0.68943 0,-0.3792 -0.77015,-0.54068 -1.71146,-0.35888 -1.58671,0.30647 -1.57648,0.27168 0.14059,-0.47901 1.0186,-0.44527 2.38778,-0.57004 3.04262,-0.27743 0.65485,0.29275 1.44735,0.60462 1.76111,0.69305 0.31377,0.0885 0.65609,0.22971 0.76067,0.31406 0.10465,0.0842 0.70358,0.2642 1.33114,0.39987 3.37577,0.72959 5.41883,2.00867 5.18101,3.24358 -0.3595,1.86671 -2.02025,1.93228 -5.7515,0.22712 z m -0.68026,-13.97019 -2.39172,-0.89295 1.26801,-3.42295 c 1.00745,-2.71957 1.67598,-3.47061 3.2535,-3.65501 1.57355,-0.18399 2.15951,0.21073 2.82419,1.90161 0.46128,1.17356 1.25168,2.70405 1.75639,3.40112 0.72264,0.99797 0.70516,1.52345 -0.0822,2.47211 -1.15824,1.39559 -3.24962,1.45746 -6.62824,0.19607 z m 11.13922,-5.07654 c -0.62753,-0.40556 -0.79867,-0.73736 -0.38032,-0.73736 0.41836,0 1.27407,0.3318 1.90164,0.73736 0.62753,0.40556 0.79867,0.73735 0.38032,0.73735 -0.41836,0 -1.2741,-0.33179 -1.90164,-0.73735 z m -7.21124,-4.19158 c -4.55505,-3.41953 -6.63539,-4.24621 -6.20097,-2.46411 0.12736,0.52294 0.0883,0.69408 -0.0871,0.38032 -0.47618,-0.85143 -3.23488,-0.68926 -3.23488,0.19003 0,0.41836 -0.36249,0.76067 -0.80555,0.76067 -0.44305,0 -0.61177,-0.31354 -0.37494,-0.69676 0.56201,-0.90933 -4.05931,-5.53063 -4.96864,-4.96864 -0.3832,0.23689 -0.69673,0.0681 -0.69673,-0.37492 0,-0.44305 0.34228,-0.80555 0.76064,-0.80555 1.32659,0 0.81932,-2.91573 -0.5705,-3.27891 -1.11615,-0.29169 -1.0843,-0.36213 0.19722,-0.43613 1.33255,-0.077 3.90815,-2.82755 3.64388,-3.8915 -0.052,-0.20929 1.12608,-0.44523 2.61786,-0.52455 1.49179,-0.0794 3.03432,-0.59278 3.42787,-1.14096 0.53493,-0.74521 0.61353,-0.6767 0.31147,0.27139 -0.41482,1.3019 1.02665,2.29107 2.73265,1.87518 0.52295,-0.12736 0.71174,-0.094 0.41956,0.0742 -0.82693,0.47626 0.9942,3.91258 1.95707,3.69276 0.47088,-0.10752 0.59942,-0.052 0.28576,0.12362 -0.31376,0.17537 -0.57049,0.94659 -0.57049,1.71359 0,0.767 0.25673,1.5381 0.57049,1.71359 0.31377,0.17537 0.21763,0.2435 -0.2136,0.15122 -0.43118,-0.0923 -1.16914,0.64843 -1.63991,1.64597 -0.51012,1.08093 -0.55939,1.81372 -0.12189,1.81372 0.40369,0 0.53623,0.32 0.29453,0.71108 -0.46263,0.74856 4.11376,4.6135 5.46272,4.6135 0.43225,0 1.21201,0.51343 1.73282,1.14096 1.76528,2.12703 -0.36189,1.13884 -4.92928,-2.28994 z m 3.48675,-1.04296 c -1.42093,-0.25874 -2.96124,-1.08758 -3.42292,-1.84198 -0.70243,-1.14775 -0.35359,-1.81979 2.13757,-4.11779 l 2.977,-2.74619 1.7785,2.21618 c 2.34877,2.92676 2.86263,4.70969 1.74535,6.05593 -0.96668,1.16479 -1.12733,1.17813 -5.2155,0.43385 z m -17.9541,-13.78175 c -0.25846,-0.41836 -0.10752,-0.76067 0.33544,-0.76067 0.44305,0 0.80555,0.34231 0.80555,0.76067 0,0.41836 -0.15093,0.76064 -0.33544,0.76064 -0.18457,0 -0.54698,-0.34228 -0.80555,-0.76064 z m 3.42295,-2.28196 c 0,-0.41835 0.34228,-0.76067 0.76064,-0.76067 0.41835,0 0.76067,0.34232 0.76067,0.76067 0,0.41836 -0.34232,0.76065 -0.76067,0.76065 -0.41836,0 -0.76064,-0.34229 -0.76064,-0.76065 z m 13.69173,-13.7975 c 0,-1.91089 0.22022,-5.58229 0.4896,-8.15869 l 0.48962,-4.68434 3.50382,-1.07913 c 1.92708,-0.59355 2.90481,-1.10301 2.17265,-1.13213 -1.70346,-0.0678 -1.69386,-1.01025 0.0259,-2.56689 1.25547,-1.13619 1.42727,-1.1165 2.28842,0.26248 0.70001,1.12092 0.70924,1.49084 0.0371,1.49084 -0.49161,0 -0.72209,0.17163 -0.51217,0.38167 0.20987,0.20987 2.04803,-0.11989 4.0847,-0.73276 2.03667,-0.61293 3.81327,-1.00417 3.94802,-0.86943 0.22913,0.22913 -13.10321,17.00636 -15.45546,19.44899 -0.92903,0.96474 -1.07257,0.64878 -1.07257,-2.36055 z m 7.15895,-8.48258 c 1.0117,-1.60388 -0.97198,-3.86528 -2.7815,-3.1709 -1.808,0.6938 -2.19016,2.42808 -0.8339,3.78435 1.37912,1.37912 2.4759,1.19303 3.6154,-0.61345 z M 262.27632,126.2319 c -0.5884,-1.62717 0.0144,-6.5816 0.90784,-7.47622 1.19159,-1.19159 3.35962,-0.25328 5.40129,2.33785 l 1.73397,2.20051 -2.86137,1.94432 c -3.1584,2.14621 -4.66074,2.43424 -5.18173,0.99354 z m -5.69363,-0.10119 c 0,-0.81633 2.26324,-5.03324 2.70135,-5.03324 0.20929,0 -0.18544,1.11244 -0.87694,2.47213 -1.41192,2.77629 -1.82441,3.35533 -1.82441,2.56111 z M 70.797876,123.32097 c -1.00648,-0.5863 -1.3377,-1.82004 -1.3722,-5.11126 -0.0259,-2.38614 -0.063,-5.11391 -0.0842,-6.06174 -0.0472,-2.09684 2.02037,-5.41155 3.7782,-6.0576 0.70774,-0.26017 2.04064,-1.26858 2.96196,-2.24107 1.7628,-1.86064 3.62051,-2.28503 4.41007,-1.00748 0.25846,0.41835 1.64005,0.76064 3.06997,0.76064 3.62899,0 5.51987,2.79309 4.14233,6.11878 -0.52547,1.26861 -1.59304,2.64778 -2.37237,3.06487 -0.77935,0.4171 -1.41698,1.33962 -1.41698,2.05007 0,1.83255 -8.18897,9.30889 -10.16535,9.28077 -0.89363,-0.0115 -2.22178,-0.37092 -2.95149,-0.79598 z M 252.06478,120.0119 c -1.12987,-1.36138 0.43646,-7.28162 1.92653,-7.28162 1.6069,0 5.18328,1.55452 5.79704,2.51971 1.14197,1.79599 0.54086,2.79677 -2.58787,4.30842 -3.79315,1.83264 -3.97761,1.84894 -5.1357,0.45349 z m 7.56051,0.0377 c 0,-0.15783 0.59901,-0.75696 1.33116,-1.33114 1.20643,-0.94616 1.23334,-0.91925 0.28721,0.28721 -0.99368,1.26705 -1.61834,1.66997 -1.61834,1.04393 z m 8.6735,-2.15304 c 0.1058,-0.52631 -0.64369,-1.39062 -1.66532,-1.92064 -2.26235,-1.17371 -3.24614,-1.24363 -1.6836,-0.1196 0.98635,0.70953 0.97316,0.76755 -0.0975,0.42811 -0.68115,-0.21591 -1.6627,0.009 -2.18125,0.49873 -0.62874,0.59445 -0.59867,0.32127 0.0903,-0.82009 0.56816,-0.9413 1.2243,-1.71146 1.458,-1.71146 0.23373,0 0.28962,-1.15905 0.1242,-2.57569 -0.16531,-1.41661 0.0719,-3.27161 0.52697,-4.12221 0.45524,-0.8506 0.57372,-1.68921 0.26334,-1.86357 -0.31043,-0.17422 -0.13656,-0.21274 0.38642,-0.0854 1.46718,0.35766 3.16024,-0.50639 2.92906,-1.4949 -0.11413,-0.4883 -0.0641,-0.63112 0.11155,-0.31736 0.17537,0.31377 0.94656,0.5705 1.71356,0.5705 0.767,0 1.5381,-0.25673 1.71359,-0.5705 0.17537,-0.31376 0.22568,-0.17105 0.11126,0.31736 -0.2645,1.13157 1.5793,1.85504 3.30941,1.29848 0.87619,-0.28174 1.0199,-0.20181 0.42049,0.23402 -0.5991,0.43572 -0.66816,1.04583 -0.20182,1.78322 0.94734,1.49805 0.91876,5.05583 -0.0552,6.87579 -0.54278,1.01421 -0.54278,1.47132 0,1.47132 0.43308,0 0.78741,0.3842 0.78741,0.85379 0,0.62492 -0.28002,0.62138 -1.04454,-0.0144 -1.22618,-1.01763 -3.5165,-0.35258 -3.21567,0.93374 0.11414,0.48833 0.0641,0.63115 -0.11154,0.31739 -0.47293,-0.84566 -3.04809,-0.6915 -3.49477,0.20929 -0.21274,0.42882 -0.30017,0.34904 -0.19434,-0.17738 z m -6.0112,-5.16629 c 0.25846,-0.41836 0.62104,-0.76065 0.80555,-0.76065 0.18457,0 0.33542,0.34229 0.33542,0.76065 0,0.41835 -0.3625,0.76067 -0.80555,0.76067 -0.44305,0 -0.59399,-0.34232 -0.33542,-0.76067 z m 14.8327,-0.0448 c 0,-0.44305 0.34229,-0.59399 0.76064,-0.33542 0.41839,0.25846 0.76068,0.62104 0.76068,0.80555 0,0.18457 -0.34229,0.33542 -0.76068,0.33542 -0.41835,0 -0.76064,-0.3625 -0.76064,-0.80555 z m -14.8327,-3.75837 c -0.25845,-0.41835 -0.10752,-0.76067 0.33542,-0.76067 0.44305,0 0.80555,0.34232 0.80555,0.76067 0,0.41836 -0.15094,0.76065 -0.33542,0.76065 -0.18457,0 -0.54701,-0.34229 -0.80555,-0.76065 z m 14.8327,0 c 0,-0.41835 0.3625,-0.76067 0.80555,-0.76067 0.44305,0 0.59398,0.34232 0.33544,0.76067 -0.25845,0.41836 -0.62106,0.76065 -0.80554,0.76065 -0.18457,0 -0.33545,-0.34229 -0.33545,-0.76065 z m 19.01632,-17.06977 c 0,-0.65223 0.34229,-1.18587 0.76064,-1.18587 0.41836,0 0.76067,0.32207 0.76067,0.71576 0,0.39366 -0.34231,0.9273 -0.76067,1.18584 -0.41835,0.25846 -0.76064,-0.0635 -0.76064,-0.71573 z m 5.32455,-0.0448 c 0,-0.62754 0.34229,-1.14096 0.76067,-1.14096 0.41836,0 0.76065,0.51342 0.76065,1.14096 0,0.62753 -0.34229,1.14099 -0.76065,1.14099 -0.41838,0 -0.76067,-0.51346 -0.76067,-1.14099 z m -56.43665,-1.45922 c -1.22273,-0.63791 -3.21794,-0.91577 -4.94424,-0.68854 -2.24975,0.29612 -3.51557,-0.0431 -5.68478,-1.52318 -1.53482,-1.04727 -2.9786,-1.71612 -3.20839,-1.48632 -0.70976,0.70978 -5.04712,-1.43935 -5.82022,-2.88391 -1.97109,-3.68304 0.85589,-8.31284 5.07591,-8.31284 0.98948,0 1.79903,-0.26852 1.79903,-0.59666 0,-1.17417 4.46677,-3.206611 7.04725,-3.206611 1.54983,0 3.77915,0.780561 5.43116,1.901631 1.54121,1.04589 3.42967,1.90164 4.19658,1.90164 1.98814,0 3.34251,1.9514 2.91317,4.19736 -0.20239,1.05828 -0.0503,2.12038 0.33772,2.36021 0.38808,0.23977 1.01881,1.25993 1.40163,2.26683 0.97301,2.55924 -0.4846,5.37274 -3.29021,6.35078 -2.86976,1.00041 -2.79162,1.00458 -5.25461,-0.2803 z m 58.71861,0.36592 c 0,-0.39214 -1.40399,-0.6936 -3.11999,-0.66991 -8.0926,0.11155 -11.88144,-9.15143 -5.82694,-14.24596 2.10405,-1.77045 2.92159,-1.9865 6.41937,-1.69642 2.20456,0.18284 4.13245,0.13397 4.28424,-0.10896 0.1518,-0.24264 0.19636,-0.0779 0.0992,0.36632 -0.0972,0.44417 0.46467,1.6422 1.24871,2.66231 0.79897,1.03947 1.433,3.10846 1.44246,4.70713 0.0115,2.02089 0.34956,2.85246 1.15789,2.85246 0.62754,0 1.14099,0.36537 1.14099,0.8119 0,0.46576 -0.6486,0.60606 -1.52131,0.32906 -1.64079,-0.52076 -2.14143,0.73925 -0.5705,1.43579 0.61512,0.27282 0.54799,0.37319 -0.19003,0.28461 -1.71281,-0.20584 -4.46659,1.83183 -4.0263,2.97921 0.21217,0.55299 0.17796,1.00541 -0.0759,1.00541 -0.25385,0 -0.46171,-0.32084 -0.46171,-0.71298 z m 2.78906,-0.55477 c -0.27887,-0.27886 -0.5071,-0.8608 -0.5071,-1.2931 0,-0.47663 0.3543,-0.43173 0.9001,0.11413 0.49506,0.49506 0.72327,1.07697 0.5071,1.29313 -0.21619,0.2162 -0.62121,0.16474 -0.9001,-0.11413 z m -14.57916,-1.77485 c 0.25845,-0.41836 0.62106,-0.76067 0.80555,-0.76067 0.18457,0 0.33544,0.34231 0.33544,0.76067 0,0.41836 -0.3625,0.76064 -0.80555,0.76064 -0.44305,0 -0.59401,-0.34228 -0.33544,-0.76064 z m -2.66228,-4.56391 c 0,-0.41836 0.34229,-0.76067 0.76064,-0.76067 0.41836,0 0.76068,0.34231 0.76068,0.76067 0,0.41835 -0.34232,0.76064 -0.76068,0.76064 -0.41835,0 -0.76064,-0.34229 -0.76064,-0.76064 z M 147.04881,81.53274 c 0,-0.76231 -0.18055,-1.85647 -0.40117,-2.43146 -0.27397,-0.71369 0.82404,-1.48601 3.45998,-2.43389 2.12366,-0.76363 3.97211,-1.26251 4.10769,-1.10856 0.1357,0.1538 0.80757,1.38314 1.49323,2.73156 0.96554,1.89876 1.01228,2.36173 0.20728,2.05285 -0.57165,-0.21935 -2.80059,0.27053 -4.9532,1.08836 -3.74954,1.42468 -3.9139,1.42894 -3.9139,0.10119 z M 309.0677,80.02229 c 0,-0.41836 0.53364,-0.76064 1.18587,-0.76064 0.65223,0 0.97431,0.34228 0.71574,0.76064 -0.25846,0.41835 -0.79218,0.76064 -1.18587,0.76064 -0.39366,0 -0.71574,-0.34229 -0.71574,-0.76064 z M 160.47237,76.96997 c -0.72128,-3.60648 -0.67183,-3.76302 1.44272,-4.56696 4.77231,-1.814431 5.50653,-1.751681 6.70885,0.57338 l 1.1476,2.21919 -3.75664,0.96281 c -2.06616,0.52953 -4.04766,1.48282 -4.40335,2.1184 -0.49117,0.87765 -0.76512,0.56337 -1.13918,-1.30682 z m 129.19869,1.53101 c -0.25845,-0.41836 -0.12793,-0.76065 0.29054,-0.76065 0.41836,0 0.97221,0.34229 1.23078,0.76065 0.25845,0.41835 0.12793,0.76067 -0.29057,0.76067 -0.41836,0 -0.97218,-0.34232 -1.23075,-0.76067 z m -141.33863,-2.7732 c -1.02997,-1.02996 -0.49512,-2.22971 1.04571,-2.34577 1.06708,-0.0805 1.49271,0.2734 1.33114,1.10623 -0.26449,1.36296 -1.57168,2.04472 -2.37685,1.23954 z m 158.45332,-0.26937 c 0,-0.41836 0.34228,-0.76065 0.76064,-0.76065 0.41836,0 0.76064,0.34229 0.76064,0.76065 0,0.41835 -0.34228,0.76064 -0.76064,0.76064 -0.41836,0 -0.76064,-0.34229 -0.76064,-0.76064 z M 292.84044,74.9513 c -0.92393,-0.92394 -0.52556,-1.7342 0.63389,-1.28928 0.62754,0.24092 1.14097,0.74351 1.14097,1.1171 0,0.79747 -1.04791,0.89913 -1.77486,0.17221 z M 122.34397,72.70379 c -1.48258,-1.482561 -1.2601,-3.243641 0.55414,-4.386161 1.5511,-0.97681 3.84982,0.10982 4.2216,1.99559 0.23315,1.18239 -1.71425,3.623871 -2.89046,3.623871 -0.35859,0 -1.20697,-0.55497 -1.88528,-1.2333 z m 1.4648,-2.634911 c -0.24495,-0.39628 -0.7695,-0.52013 -1.16578,-0.27513 -0.39627,0.24494 -0.52013,0.76953 -0.27513,1.1658 0.24495,0.39628 0.76953,0.5201 1.16581,0.27513 0.39627,-0.24494 0.5201,-0.76952 0.27513,-1.1658 z m 173.84915,1.9217 c 0,-0.65223 0.34229,-0.97433 0.76065,-0.71576 0.41835,0.25845 0.76064,0.7922 0.76064,1.185861 0,0.39367 -0.34229,0.71577 -0.76064,0.71577 -0.41836,0 -0.76065,-0.53364 -0.76065,-1.185871 z m 4.94424,0.425231 c 0.25845,-0.418361 0.62103,-0.760671 0.80554,-0.760671 0.18457,0 0.33542,0.34231 0.33542,0.760671 0,0.41835 -0.3625,0.76064 -0.80555,0.76064 -0.44305,0 -0.59398,-0.34229 -0.33541,-0.76064 z M 136.71137,71.370199 c -0.9116,-2.37559 0.0115,-3.89865 2.36101,-3.89865 2.01684,0 2.27155,0.25586 2.27155,2.28195 0,1.92512 -0.32779,2.31968 -2.09612,2.523081 -1.33766,0.1538 -2.25545,-0.174221 -2.53644,-0.906381 z m 2.35061,-2.75766 c -0.25846,-0.41836 -0.79221,-0.76064 -1.18587,-0.76064 -0.39369,0 -0.71577,0.34228 -0.71577,0.76064 0,0.41835 0.53364,0.76064 1.18587,0.76064 0.65223,0 0.97431,-0.34229 0.71577,-0.76064 z m 5.39642,2.57531 c -0.27627,-0.71962 -0.12419,-1.67903 0.33786,-2.13203 0.60356,-0.59183 0.77111,-0.57745 0.59542,0.0512 -0.13454,0.48112 0.0977,0.87475 0.51617,0.87475 0.41835,0 0.66436,-0.34016 0.54672,-0.7559 -0.11759,-0.41574 0.22453,-0.60971 0.76064,-0.43103 0.53602,0.17882 0.97459,0.98091 0.97459,1.78278 0,1.913941 -3.0403,2.411191 -3.7314,0.61029 z m 14.47472,-2.22377 c -0.25845,-0.67362 0.0434,-1.35874 0.71208,-1.61529 1.48831,-0.5711 2.16745,0.11557 1.59351,1.61127 -0.5774,1.50469 -1.72894,1.50671 -2.30559,0.003 z m -51.4382,-3.25985 c 0,-0.40272 0.59901,-0.97669 1.33114,-1.27554 1.22341,-0.49937 1.208,-0.59723 -0.19004,-1.20924 -1.3558,-0.59347 -1.31443,-0.64666 0.38035,-0.48885 2.52279,0.23488 2.68062,3.10903 0.19004,3.46273 -0.94131,0.13369 -1.71146,-0.0865 -1.71146,-0.4891 z m 47.16043,-0.0785 c 0,-0.44903 0.42784,-0.82167 0.95079,-0.82809 0.64216,-0.009 0.58044,-0.26794 -0.19004,-0.80152 -0.9411,-0.65154 -0.87446,-0.74759 0.38033,-0.54844 1.87297,0.29729 2.01804,2.38611 0.19003,2.73811 -0.73215,0.14087 -1.33114,-0.11097 -1.33114,-0.56006 z m -23.51943,-1.88415 c -1.61446,-1.94531 -0.69219,-3.87653 1.85127,-3.87653 2.0168,0 2.27152,0.25587 2.27152,2.28196 0,1.73429 -0.3811,2.33641 -1.58787,2.50884 -0.87331,0.12477 -2.01404,-0.28662 -2.53492,-0.91427 z m 2.22115,-2.73553 c 0,-0.41836 -0.34228,-0.76067 -0.76064,-0.76067 -0.41835,0 -0.76064,0.34231 -0.76064,0.76067 0,0.41835 0.34229,0.76064 0.76064,0.76064 0.41836,0 0.76064,-0.34229 0.76064,-0.76064 z m 14.22515,3.32244 c -0.70947,-0.70947 -0.68319,-1.85107 0.0371,-1.61098 0.31377,0.10464 0.62185,-0.15209 0.68458,-0.5705 0.0627,-0.41836 -0.27944,-0.65062 -0.76065,-0.51616 -0.63489,0.17738 -0.62805,-0.006 0.0259,-0.67149 1.36564,-1.39036 3.43108,-0.24379 3.1471,1.74696 -0.24092,1.68904 -2.10242,2.65282 -3.13307,1.62217 z m -25.29554,-1.10678 c -0.66382,-1.07404 0.80224,-2.54012 1.8763,-1.87631 0.45481,0.28117 0.82694,1.00432 0.82694,1.60716 0,1.28065 -1.95767,1.47557 -2.70324,0.26909 z m 17.59028,-1.88968 c -1.65609,-1.65609 -1.60026,-4.23689 0.0776,-3.593 0.94538,0.36279 1.15353,0.1771 0.80868,-0.72157 -0.65102,-1.6966 1.22741,-2.20565 3.15552,-0.85514 2.0852,1.46051 2.04998,3.68767 -0.0819,5.18092 -2.10555,1.47477 -2.47509,1.47371 -3.96001,-0.0115 z m 18.09801,0.0595 c -0.26334,-0.68658 -0.11442,-1.61305 0.33151,-2.05886 1.15893,-1.15893 3.35478,-0.0998 3.05202,1.47224 -0.33716,1.75093 -2.77459,2.17351 -3.38353,0.58662 z m -7.58799,-4.51564 c -0.75737,-1.97365 0.30416,-3.60487 2.17317,-3.33949 1.25713,0.17853 1.71485,0.75107 1.71485,2.14514 0,1.39407 -0.45772,1.96664 -1.71485,2.14514 -1.02862,0.14604 -1.89828,-0.23431 -2.17317,-0.95079 z m -32.25796,-0.83211 c -0.71513,-0.86167 -0.75222,-1.59359 -0.14461,-2.85245 0.65559,-1.35828 0.82751,-1.42995 0.8688,-0.36221 0.0288,0.73212 0.41683,1.33114 0.86339,1.33114 0.46576,0 0.60606,-0.64861 0.32906,-1.52132 -0.54569,-1.71933 -0.16042,-1.86423 1.95166,-0.73387 0.8092,0.43307 1.47129,1.39148 1.47129,2.12981 0,2.90081 -3.50497,4.21947 -5.33959,2.0089 z m 14.54742,-1.40681 c -1.17627,-1.41733 -0.25242,-3.51934 1.54656,-3.51934 1.8456,0 2.64315,1.94435 1.40801,3.43264 -1.1656,1.40444 -1.84443,1.42437 -2.95457,0.0868 z m 1.4413,-1.99803 c 0,-0.41835 -0.15093,-0.76064 -0.33544,-0.76064 -0.18457,0 -0.54698,0.34229 -0.80555,0.76064 -0.25845,0.41836 -0.10752,0.76064 0.33545,0.76064 0.44305,0 0.80554,-0.34228 0.80554,-0.76064 z m 5.89505,-0.061 c -2.70767,-1.57708 -1.16347,-6.0243 2.09179,-6.0243 3.20322,0 4.5251,3.35309 2.22762,5.65057 -1.37516,1.37515 -2.44166,1.46743 -4.31941,0.37373 z m 1.29098,-4.56796 c -0.24494,-0.39628 -0.76952,-0.5201 -1.1658,-0.27513 -0.39628,0.24494 -0.5201,0.76953 -0.27513,1.1658 0.24494,0.39628 0.7695,0.52013 1.16577,0.27513 0.39628,-0.24494 0.52013,-0.76952 0.27513,-1.1658 z m 8.21717,2.29909 c -1.91259,-0.74178 -2.39408,-4.28985 -0.79868,-5.88525 1.24912,-1.24911 4.03004,-1.14826 5.13769,0.1863 2.26531,2.72957 -0.98569,6.9995 -4.33901,5.69892 z m 1.33114,-4.13575 c 0,-0.62754 -0.51343,-1.14097 -1.14099,-1.14097 -0.62754,0 -1.14097,0.51343 -1.14097,1.14097 0,0.62753 0.51343,1.14099 1.14097,1.14099 0.62756,0 1.14099,-0.51346 1.14099,-1.14099 z"
       style="fill:#8bd25a;fill-opacity:1;stroke-width:0.958683;filter:url(#filter903)" />
  </g>
</svg>
